<?xml version="1.0" encoding="utf-8"?>
<!-- Generator: Adobe Illustrator 25.4.1, SVG Export Plug-In . SVG Version: 6.00 Build 0)  -->
<svg version="1.1" id="Logos" xmlns="http://www.w3.org/2000/svg" xmlns:xlink="http://www.w3.org/1999/xlink" x="0px" y="0px"
	 viewBox="0 0 279.7 124.7" style="enable-background:new 0 0 279.7 124.7;" xml:space="preserve">
<style type="text/css">
	.st0{fill:url(#SVGID_1_);}
	.st1{fill:url(#SVGID_00000049217292372937247020000015175963005199716754_);}
	.st2{fill:url(#SVGID_00000003799194622779463660000002919171574120918456_);}
	.st3{fill:url(#SVGID_00000093862201627013038790000017638375829357705351_);}
	.st4{fill:#E30613;}
	.st5{fill:url(#SVGID_00000162309981555180441850000015847910483592178088_);}
	.st6{fill:url(#SVGID_00000160171695050322590610000018162966879645131956_);}
	.st7{fill:url(#SVGID_00000173839288078987677810000017239823750136961162_);}
	.st8{fill:url(#SVGID_00000157284581675147383150000008135052031092777862_);}
	.st9{fill:url(#SVGID_00000044157720732965259230000000111785081292441991_);}
	.st10{fill:url(#SVGID_00000011009423265972751040000009704571433734311562_);}
	.st11{fill:url(#SVGID_00000026859827942207686440000011918526686147901333_);}
	.st12{fill:url(#SVGID_00000094590805738246222790000005011794745005172355_);}
	.st13{fill:url(#SVGID_00000017506226191865894670000012055715905319148727_);}
	.st14{fill:url(#SVGID_00000144325197352859291860000017195365454481919641_);}
	.st15{fill:url(#SVGID_00000162351360316178622580000014478428889535810749_);}
	.st16{fill:url(#SVGID_00000018930614442467692300000005750609982986085285_);}
</style>
<g>
	
		<linearGradient id="SVGID_1_" gradientUnits="userSpaceOnUse" x1="172.3484" y1="21.7888" x2="255.9708" y2="105.4112" gradientTransform="matrix(1 0 0 -1 0 126)">
		<stop  offset="0" style="stop-color:#B8B8B8"/>
		<stop  offset="1" style="stop-color:#EDEDED"/>
	</linearGradient>
	<path class="st0" d="M148.9,62.4c0,28.9,29.2,52.2,65.3,52.2s65.3-23.4,65.3-52.2s-29.2-52.2-65.3-52.2
		C178.1,10.2,148.9,33.5,148.9,62.4"/>
	
		<linearGradient id="SVGID_00000180367553257604526720000009546732395270062260_" gradientUnits="userSpaceOnUse" x1="174.4286" y1="23.8886" x2="253.871" y2="103.331" gradientTransform="matrix(1 0 0 -1 0 126)">
		<stop  offset="0" style="stop-color:#DBDBDB"/>
		<stop  offset="1" style="stop-color:#FFFFFF"/>
	</linearGradient>
	<path style="fill:url(#SVGID_00000180367553257604526720000009546732395270062260_);" d="M151.8,62.4c0,27.2,27.9,49.3,62.3,49.3
		s62.3-22.1,62.3-49.3s-27.9-49.3-62.3-49.3C179.8,13.1,151.8,35.1,151.8,62.4"/>
	<g>
		<path d="M162.9,50.9l-0.3,0.7l2.9,1.1l-0.8,2l-7.8-3.1l1.1-2.8c0.8-2,2-2.7,3.6-2c1,0.4,1.5,1.1,1.6,1.9l3.4-0.4l0.5,0.2l-0.7,1.9
			L162.9,50.9z M161.2,51.1l0.3-0.6c0.3-0.7,0.1-1.2-0.6-1.5c-0.6-0.3-1.2-0.1-1.5,0.6l-0.3,0.6L161.2,51.1z"/>
		<path d="M166.1,45.6c0.9,0.5,1.5,0.3,1.9-0.5c0.4-0.6,0.5-1.1,0.5-1.6l0.4-0.6l1.1,0.7c0,0.6-0.2,1.4-0.8,2.4
			c-1.2,1.8-2.8,2-4.4,0.9s-2-2.9-1-4.4c1-1.6,2.4-1.8,4.3-0.6c0.2,0.1,0.4,0.3,0.5,0.3L166.1,45.6z M165.1,45l1-1.6
			c-0.8-0.5-1.3-0.4-1.6,0.1C164.3,43.8,164.3,44.3,165.1,45z"/>
		<path d="M168.3,41.5c-1.5-1.4-1.5-3.2-0.1-4.7c0.6-0.6,1.2-1,1.7-1.1l1.1,1l-0.5,0.6c-0.3,0-0.6,0.2-1,0.6
			c-0.6,0.6-0.5,1.4,0.4,2.2c0.8,0.8,1.6,0.8,2.1,0.2c0.5-0.5,0.5-0.8,0.5-1.2l0.5-0.6l1,0.9c-0.1,0.5-0.3,1.2-1,1.9
			C171.5,42.8,169.9,42.9,168.3,41.5z"/>
		<path d="M172.3,37.2c-1.3-1.6-1-3.4,0.5-4.6c1.4-1.2,3.3-1.1,4.5,0.5c1.3,1.6,0.9,3.3-0.5,4.5S173.6,38.8,172.3,37.2z M175.7,34.5
			c-0.8-0.9-1.5-1.1-2-0.6c-0.6,0.5-0.6,1.2,0.3,2.1s1.5,1.1,2,0.6C176.4,36.1,176.4,35.4,175.7,34.5z"/>
		<path d="M178.3,29.6c0.2-0.6,0.6-1.4,1.4-1.8c0.6-0.4,1.2-0.5,1.8,0c0.2-0.7,0.7-1.5,1.5-1.8c0.7-0.5,1.6-0.5,2.3,0.7l2.3,4
			l-1.8,1l-2-3.5c-0.3-0.5-0.6-0.5-0.9-0.3c-0.3,0.2-0.6,0.4-0.6,0.6l2.3,3.9l-1.8,1l-2-3.5c-0.3-0.5-0.6-0.5-0.9-0.3
			c-0.3,0.2-0.6,0.4-0.7,0.6l2.1,4.1l-1.8,1l-3.1-5.5l1.2-0.7C177.6,29,177.9,29,178.3,29.6z"/>
		<path d="M188.4,24.4c0.4-0.6,0.9-1.2,1.7-1.6c0.6-0.2,1.3-0.2,1.7,0.4c0.4-0.7,0.9-1.3,1.8-1.6c0.8-0.3,1.7-0.2,2.1,1.1l1.6,4.3
			l-1.9,0.7l-1.4-3.8c-0.2-0.5-0.5-0.6-0.8-0.5c-0.3,0.1-0.6,0.3-0.8,0.5l1.6,4.3l-1.9,0.7l-1.4-3.8c-0.2-0.5-0.5-0.6-0.8-0.5
			c-0.3,0.1-0.6,0.3-0.8,0.5l1.6,4.3l-1.9,0.7l-2.1-5.9l1.4-0.5C187.8,23.7,188.1,23.7,188.4,24.4z"/>
		<path d="M199,24c0.4,1,0.8,1.2,1.7,1c0.6-0.2,1.1-0.5,1.4-0.7l0.6-0.1l0.3,1.2c-0.5,0.4-1.1,0.8-2.3,1.1c-2,0.5-3.4-0.5-3.8-2.4
			c-0.5-1.9,0.6-3.5,2.3-3.9c1.8-0.4,3.1,0.4,3.5,2.5c0.1,0.3,0.1,0.5,0.1,0.6L199,24z M198.8,22.9l1.8-0.4c-0.3-0.9-0.6-1.2-1.1-1
			C199,21.5,198.7,21.9,198.8,22.9z"/>
		<path d="M205.4,20c0.5-0.6,1.2-1,2.1-1.1c0.9-0.1,1.7,0.2,1.8,1.6l0.5,4.6l-2,0.3l-0.5-4c-0.1-0.6-0.3-0.6-0.8-0.6
			c-0.4,0-0.7,0.2-1,0.3l0.5,4.5l-2,0.3l-0.7-6.2l1.5-0.2C205,19.2,205.3,19.4,205.4,20z"/>
		<path d="M214.3,24.3c-0.4,0.5-0.9,0.7-1.8,0.7c-1.4,0-2.4-1-2.5-3.1c0-2.5,1.3-3.3,2.5-3.3c0.7,0,1.2,0.2,1.6,0.6v-2.6h1.3
			c0.6,0,0.7,0.2,0.7,1.1l0.1,7.2h-1.5C214.6,24.9,214.4,24.9,214.3,24.3z M214.3,23.3v-2.9c-0.2-0.2-0.5-0.2-0.8-0.2
			c-0.6,0-1.2,0.3-1.2,1.7c0,1.3,0.4,1.8,1.1,1.8C213.7,23.7,214,23.6,214.3,23.3z"/>
		<path d="M219.1,22.5c0,1.1,0.5,1.4,1.3,1.5c0.6,0.1,1.2-0.1,1.6-0.4l0.6,0.1l-0.1,1.3c-0.6,0.3-1.3,0.6-2.6,0.4
			c-2.1-0.2-3.1-1.5-3-3.4c0.2-2,1.6-3.1,3.3-3c1.8,0.2,2.8,1.3,2.6,3.4c0,0.3-0.1,0.5-0.1,0.6L219.1,22.5z M219.2,21.3l1.8,0.2
			c0.1-0.9-0.3-1.3-0.8-1.4C219.8,20.1,219.3,20.3,219.2,21.3z"/>
		<path d="M227.6,25.7c-0.5,0.4-1,0.6-1.8,0.4c-1.4-0.3-2.2-1.5-1.8-3.6c0.5-2.4,1.9-3.1,3.1-2.8c0.7,0.2,1.1,0.5,1.5,0.9l0.5-2.5
			l1.3,0.3c0.6,0.1,0.7,0.3,0.6,1.2l-1.4,7.1l-1.5-0.3C227.7,26.3,227.6,26.2,227.6,25.7z M227.7,24.7l0.6-2.8
			c-0.2-0.2-0.5-0.3-0.7-0.4c-0.6-0.1-1.2,0.1-1.5,1.4s0,1.8,0.6,1.9C227,24.9,227.3,24.9,227.7,24.7z"/>
		<path d="M235.4,19.7l2.8,1c2,0.7,2.9,1.9,2.2,3.7c-0.6,1.8-2,2.1-4.1,1.4l-0.6-0.2l-1,2.8l-2.1-0.7L235.4,19.7z M236.2,24.2
			l0.6,0.2c0.8,0.3,1.3-0.1,1.6-0.7c0.3-0.7,0.2-1.2-0.7-1.5L237,22L236.2,24.2z"/>
		<path d="M242.6,26.9l-1.8,3.9l-1.8-0.9l2.7-5.7l1.3,0.6c0.3,0.1,0.4,0.4,0.2,1c0.6-0.3,1.2-0.5,1.9-0.1c0.1,0.1,0.2,0.1,0.3,0.2
			l-0.7,1.6l-0.3-0.1C243.6,27.1,242.9,26.9,242.6,26.9z"/>
		<path d="M244.3,28.9c1-1.8,2.9-2.1,4.4-1.1c1.6,0.9,2.1,2.8,1.1,4.4c-1,1.8-2.9,2-4.4,1.1C243.8,32.4,243.3,30.7,244.3,28.9z
			 M248,31.2c0.6-1.1,0.6-1.8,0-2.1c-0.6-0.4-1.3-0.1-1.9,1c-0.6,1.1-0.6,1.8,0.1,2.1C246.7,32.4,247.4,32.3,248,31.2z"/>
		<path d="M251.5,30.1l0.3-0.4l1.6,1.2l-1.4,3.9l0,0l3.3-2.4l1.4,1.1l-0.3,0.4l-5.2,3.3l-1.7-1.3L251.5,30.1z"/>
		<path d="M253.2,38.9l4.3-4.5l0.9,0.9c0.5,0.5,0.4,0.6-0.3,1.4l-3.5,3.7L253.2,38.9z M258.5,33.3c0.4-0.5,1-0.5,1.5,0
			c0.5,0.5,0.5,1,0.1,1.5c-0.4,0.5-1,0.5-1.5,0C258.1,34.4,258,33.7,258.5,33.3z"/>
		<path d="M258.4,43.4c-0.6,0-1.2-0.2-1.7-0.8c-0.8-1-0.7-2.5,0.9-3.9c1.9-1.6,3.4-1.1,4.2-0.2c0.5,0.6,0.6,1.1,0.6,1.6l1.9-1.7
			l0.8,1c0.4,0.5,0.4,0.7-0.4,1.3l-5.5,4.6l-0.9-1.1C258,44.1,258,43.9,258.4,43.4z M259.1,42.8l2.2-1.8c0-0.3-0.2-0.6-0.4-0.7
			c-0.4-0.5-1-0.7-2,0.2c-1,0.8-1.1,1.4-0.7,1.9C258.5,42.6,258.7,42.7,259.1,42.8z"/>
		<path d="M262.7,46.3c-0.8,0.6-0.8,1.2-0.5,1.9c0.4,0.6,0.7,0.9,1.2,1.1l0.3,0.6l-1.1,0.6c-0.6-0.3-1.1-0.7-1.8-1.8
			c-1-1.8-0.6-3.4,1.2-4.3c1.8-1,3.5-0.5,4.3,1.1c0.9,1.7,0.5,3-1.4,4.1c-0.2,0.1-0.5,0.2-0.5,0.3L262.7,46.3z M263.7,45.8l0.9,1.7
			c0.8-0.5,0.9-0.9,0.6-1.4C265.1,45.6,264.6,45.3,263.7,45.8z"/>
		<path d="M267.2,52.1l-4.1,1.4l-0.6-1.9l5.9-2l0.5,1.4c0.1,0.3,0,0.6-0.6,0.8c0.6,0.2,1.2,0.6,1.4,1.3c0,0.1,0.1,0.3,0.1,0.4
			l-1.7,0.6l-0.1-0.3C267.8,52.9,267.4,52.4,267.2,52.1z"/>
	</g>
	
		<linearGradient id="SVGID_00000010269065777631737790000013922195333353795001_" gradientUnits="userSpaceOnUse" x1="185.7706" y1="35.211" x2="242.5486" y2="91.989" gradientTransform="matrix(1 0 0 -1 0 126)">
		<stop  offset="0" style="stop-color:#FFFFFF"/>
		<stop  offset="1" style="stop-color:#D1D1D1"/>
	</linearGradient>
	<path style="fill:url(#SVGID_00000010269065777631737790000013922195333353795001_);" d="M167.8,62.4c0,18,21.2,33.3,46.3,33.3
		c25.1,0,46.3-15.3,46.3-33.3s-21.2-33.3-46.3-33.3C189.1,29.1,167.8,44.4,167.8,62.4"/>
	
		<linearGradient id="SVGID_00000168817493869753613860000015575225300229027981_" gradientUnits="userSpaceOnUse" x1="187.84" y1="37.3157" x2="240.4792" y2="89.9549" gradientTransform="matrix(1 0 0 -1 0 126)">
		<stop  offset="0" style="stop-color:#DBDBDB"/>
		<stop  offset="1" style="stop-color:#FFFFFF"/>
	</linearGradient>
	<path style="fill:url(#SVGID_00000168817493869753613860000015575225300229027981_);" d="M170.8,62.4c0,16.4,19.9,30.2,43.4,30.2
		s43.4-13.9,43.4-30.2c0-16.5-19.9-30.3-43.4-30.3C190.7,32.1,170.8,45.9,170.8,62.4"/>
	<g>
		<path class="st4" d="M195.3,63.2l-1.8-7.7c-0.3-1.2-0.6-1.6-1.7-1.6h-1.8l-2.1,9.2L186,54h-3.9l3.6,15.5h3.2l2.4-8.9l2.4,8.9h3.1
			l3.7-15.5H197L195.3,63.2z"/>
		<path class="st4" d="M208.2,57.5c-1.3,0-2.7,0.5-3.5,1.1v-3.3c0-0.8-0.3-1.3-1.2-1.3h-2.4v15.5h3.5v-8.8c0.7-0.2,1.4-0.3,2-0.3
			c0.7,0,1.2,0.2,1.2,1.1v8h3.5v-9C211.6,58.8,210.8,57.5,208.2,57.5"/>
		<rect x="212.5" y="57.8" class="st4" width="3.5" height="11.7"/>
		<path class="st4" d="M216.8,63.7c0,3.5,1.9,6.2,5.8,6.2c1.5,0,2.8-0.3,3.5-1v-2.2c-1.4,0.3-2,0.3-2.9,0.3c-1.8,0-2.8-1.2-2.8-3.2
			c0-1.9,0.9-3.2,2.8-3.2c0.8,0,1.5,0,2.9,0.3v-2.2c-0.7-0.6-2-1-3.5-1C218.8,57.5,216.8,60.2,216.8,63.7"/>
		<path class="st4" d="M234,57.5c-1.3,0-2.7,0.5-3.5,1.1v-3.3c0-0.8-0.3-1.3-1.2-1.3h-2.4v15.5h3.5v-8.8c0.7-0.2,1.4-0.3,2-0.3
			c0.7,0,1.2,0.2,1.2,1.1v8h3.5v-9C237.3,58.8,236.6,57.5,234,57.5"/>
		<path class="st4" d="M215.5,54h-2.3c-0.5,0-0.7,0.4-0.7,0.7V56c0,0.5,0.4,0.7,0.7,0.7h2.3c0.5,0,0.7-0.4,0.7-0.7v-1.3
			C216.2,54.4,215.9,54,215.5,54"/>
		<path d="M241.2,52.3c-1.5,0-3.3,0.5-4.4,1.3v2.3c1.2-0.3,2.6-0.4,3.1-0.4c1.7,0,2.7,0.5,2.7,1.8c0,1.2-0.6,1.6-1.6,2.4
			c-1.2,1.1-2.3,1.6-2.3,3.9v1.6h1.4h2.2v-1.2c0-1.4,0.7-1.8,1.9-2.9c1.4-1.2,2.1-2.5,2.1-4.4C246.2,54.3,244.5,52.3,241.2,52.3"/>
		<path d="M241.5,66.4h-2.2c-0.5,0-0.8,0.4-0.8,0.8v1.6c0,0.5,0.4,0.8,0.8,0.8h2.2c0.5,0,0.8-0.4,0.8-0.8v-1.6
			C242.4,66.7,242,66.4,241.5,66.4"/>
	</g>
	<g>
		<path d="M168.3,80.2l-4.6,3.2l-0.5-0.6l4.6-3.2L168.3,80.2z"/>
		<path d="M166.9,82.8c0.3-0.3,0.6-0.5,0.8-0.7l0.5,0.5l-0.5,0.5l0,0c0.5-0.1,1,0,1.5,0.6c0.4,0.5,0.6,1.3-0.4,2.2l-1.8,1.6
			l-0.5-0.6l1.8-1.5c0.5-0.5,0.7-0.9,0.3-1.5c-0.3-0.4-0.8-0.5-1.2-0.3c-0.1,0-0.2,0.1-0.3,0.2l-1.8,1.6l-0.5-0.6L166.9,82.8z"/>
		<path d="M170.8,85.7l-1,2.2c-0.2,0.4-0.3,0.6-0.5,0.9l0,0c0.3-0.2,0.6-0.4,1-0.5l2.1-1l0.6,0.6l-4,1.8l-0.5-0.5l1.8-4L170.8,85.7z
			"/>
		<path d="M172.4,90.1c-0.6,0.7-0.4,1.5,0.2,1.9c0.4,0.4,0.7,0.5,1,0.6l-0.3,0.5c-0.3-0.1-0.7-0.3-1.2-0.6c-0.9-0.8-1-1.9-0.2-2.9
			c0.7-0.9,1.9-1.2,2.9-0.5c1,0.8,0.6,1.9,0.1,2.6c-0.1,0.1-0.2,0.2-0.3,0.3L172.4,90.1z M174.4,91.2c0.3-0.4,0.6-1,0-1.6
			c-0.6-0.5-1.3-0.2-1.7,0.2L174.4,91.2z"/>
		<path d="M174.7,93.5c0.1,0.3,0.3,0.6,0.6,0.8c0.5,0.3,0.8,0.3,1,0c0.2-0.3,0.2-0.6-0.2-1c-0.5-0.6-0.5-1.2-0.2-1.6
			c0.4-0.6,1.1-0.6,1.8-0.2c0.4,0.3,0.6,0.6,0.6,0.8l-0.5,0.4c-0.1-0.2-0.2-0.5-0.6-0.6c-0.4-0.3-0.7-0.2-0.8,0.1
			c-0.2,0.3-0.1,0.6,0.2,1c0.5,0.6,0.5,1.1,0.2,1.7c-0.5,0.6-1.2,0.6-1.9,0.1c-0.4-0.3-0.6-0.6-0.7-0.9L174.7,93.5z"/>
		<path d="M180.8,92.3l-0.6,1l0.9,0.6l-0.3,0.5l-0.9-0.6l-1.2,1.8c-0.3,0.5-0.3,0.7,0,0.9c0.2,0.1,0.3,0.2,0.4,0.2l-0.3,0.5
			c-0.2,0-0.4-0.1-0.6-0.3c-0.3-0.2-0.5-0.5-0.5-0.6c-0.1-0.3,0.1-0.6,0.4-1l1.2-1.8l-0.6-0.4l0.3-0.5l0.6,0.4l0.6-0.8L180.8,92.3z"
			/>
		<path d="M181.1,95.3c0.2-0.4,0.4-0.6,0.5-1l0.6,0.3l-0.3,0.6l0,0c0.4-0.3,0.9-0.4,1.5-0.1c0.5,0.3,0.7,0.7,0.6,1.3l0,0
			c0.2-0.2,0.5-0.2,0.6-0.3c0.3-0.1,0.6,0,0.9,0.2c0.5,0.3,1,0.9,0.4,2.2l-1.1,2.1l-0.6-0.4l1.1-2c0.4-0.6,0.4-1.2-0.2-1.5
			c-0.4-0.2-0.8-0.1-1.1,0.2c-0.1,0.1-0.2,0.2-0.2,0.3l-1.2,2.2L182,99l1.1-2.1c0.3-0.6,0.3-1.1-0.3-1.4c-0.4-0.2-0.9,0-1.1,0.2
			c-0.1,0.1-0.2,0.2-0.2,0.3l-1.1,2.1l-0.6-0.4L181.1,95.3z"/>
		<path d="M187.5,99.6c-0.4,0.9,0.1,1.6,0.7,1.8c0.5,0.2,0.8,0.3,1.1,0.3l-0.1,0.6c-0.3,0-0.7,0-1.4-0.3c-1.2-0.5-1.6-1.5-1.1-2.7
			c0.5-1.1,1.5-1.8,2.6-1.3c1.2,0.5,1.1,1.8,0.8,2.4c-0.1,0.2-0.1,0.3-0.2,0.3L187.5,99.6z M189.7,99.9c0.2-0.5,0.3-1.2-0.5-1.5
			c-0.7-0.3-1.3,0.2-1.5,0.6L189.7,99.9z"/>
		<path d="M191.5,100c0.1-0.4,0.2-0.7,0.3-1l0.6,0.2l-0.2,0.6l0,0c0.3-0.3,0.9-0.6,1.5-0.3c0.6,0.2,1.3,0.7,0.8,2.1l-0.7,2.3
			l-0.7-0.3l0.7-2.2c0.2-0.6,0.2-1.2-0.6-1.5c-0.5-0.2-0.9,0.1-1.2,0.4c-0.1,0.1-0.1,0.2-0.2,0.3l-0.7,2.3l-0.7-0.3L191.5,100z"/>
		<path d="M197.3,99.5l-0.3,1.1l1,0.3l-0.2,0.6l-1-0.3l-0.6,2.1c-0.1,0.5-0.1,0.8,0.4,0.9c0.2,0.1,0.4,0.1,0.5,0.1l-0.1,0.6
			c-0.2,0-0.4,0-0.6-0.1c-0.4-0.1-0.6-0.3-0.6-0.5c-0.2-0.3-0.1-0.6,0-1.1l0.6-2.1l-0.6-0.2l0.2-0.6l0.6,0.2l0.3-0.9L197.3,99.5z"/>
		<path d="M200.8,99.9c0.4,0,0.8,0,1.4,0.2c0.7,0.1,1.2,0.4,1.5,0.7c0.3,0.3,0.4,0.7,0.3,1.3c-0.1,0.5-0.3,0.8-0.6,1.1
			c-0.5,0.4-1.1,0.5-1.8,0.3c-0.2,0-0.4-0.1-0.6-0.2l-0.4,2.2l-0.7-0.1L200.8,99.9z M201.1,102.8c0.2,0.1,0.4,0.1,0.6,0.2
			c0.8,0.2,1.5-0.2,1.6-0.9c0.1-0.7-0.4-1.2-1.1-1.3c-0.3-0.1-0.6-0.1-0.6-0.1L201.1,102.8z"/>
		<path d="M205.1,100.3l0.7,0.1l-0.8,5.9l-0.7-0.1L205.1,100.3z"/>
		<path d="M208.7,106.7v-0.6l0,0c-0.3,0.3-0.7,0.6-1.3,0.5c-0.8-0.1-1.2-0.6-1.1-1.3c0.1-1,1-1.5,2.6-1.3v-0.1c0-0.4,0-0.9-0.8-1
			c-0.4,0-0.7,0.1-1.1,0.2l-0.1-0.5c0.4-0.2,0.8-0.3,1.4-0.3c1.2,0.1,1.5,1,1.4,1.8l-0.1,1.5c0,0.4,0,0.7,0,1L208.7,106.7z
			 M208.8,104.7c-0.8-0.1-1.8,0-1.8,0.7c0,0.5,0.3,0.7,0.6,0.7c0.6,0.1,0.9-0.3,1-0.6c0-0.1,0.1-0.2,0.1-0.2L208.8,104.7z"/>
		<path d="M211.8,101.6v1.2h1v0.6h-1l-0.1,2.2c0,0.5,0.1,0.8,0.6,0.8c0.2,0,0.4,0,0.5,0v0.6c-0.2,0.1-0.4,0.1-0.6,0.1
			c-0.4,0-0.6-0.1-0.8-0.4c-0.2-0.2-0.3-0.6-0.3-1.1l0.1-2.2h-0.6v-0.6h0.6v-1L211.8,101.6z"/>
		<path d="M213.9,106.9l-0.1-3.5h-0.6v-0.6h0.6v-0.2c0-0.6,0.1-1.1,0.5-1.4c0.3-0.3,0.6-0.4,1-0.4c0.3,0,0.5,0.1,0.6,0.1l-0.1,0.6
			c-0.1-0.1-0.3-0.1-0.5-0.1c-0.6,0-0.7,0.6-0.7,1.2v0.2h1v0.6h-1l0.1,3.5H213.9z"/>
		<path d="M220,104.7c0.1,1.5-0.9,2.2-1.9,2.2c-1.1,0.1-2-0.7-2-1.9c-0.1-1.4,0.7-2.2,1.9-2.2C219.1,102.6,219.9,103.4,220,104.7z
			 M216.7,104.8c0.1,0.9,0.6,1.6,1.3,1.5c0.7,0,1.2-0.7,1.1-1.7c0-0.6-0.5-1.6-1.3-1.5C217,103.3,216.7,104.1,216.7,104.8z"/>
		<path d="M220.9,103.8c-0.1-0.5-0.1-0.9-0.2-1.3l0.6-0.1l0.1,0.8l0,0c0.1-0.6,0.6-0.9,1-1c0.1,0,0.2,0,0.2,0l0.1,0.6
			c-0.1,0-0.2,0-0.3,0c-0.6,0.1-0.8,0.5-0.9,1c0,0.1,0,0.2,0,0.4l0.3,2.1l-0.7,0.1L220.9,103.8z"/>
		<path d="M223.7,103.4c-0.1-0.4-0.2-0.7-0.3-1.1l0.6-0.1l0.2,0.6l0,0c0.2-0.5,0.5-0.8,1.1-0.9c0.6-0.1,1,0.2,1.3,0.6l0,0
			c0.1-0.3,0.2-0.5,0.4-0.6c0.2-0.2,0.5-0.4,0.8-0.5c0.6-0.1,1.4,0.1,1.7,1.5l0.5,2.3l-0.7,0.1l-0.4-2.2c-0.2-0.7-0.6-1.2-1.1-1.1
			c-0.4,0.1-0.6,0.5-0.7,0.8c0,0.1,0,0.3,0,0.4l0.5,2.5l-0.7,0.1l-0.5-2.4c-0.1-0.6-0.5-1-1-0.9c-0.5,0.1-0.7,0.5-0.7,0.9
			c0,0.1,0,0.3,0,0.4l0.5,2.4l-0.7,0.1L223.7,103.4z"/>
		<path d="M231,104.1c0.3,0.1,0.6,0.1,1,0c0.6-0.2,0.7-0.5,0.6-0.8c-0.1-0.4-0.4-0.5-0.9-0.6c-0.7-0.1-1.2-0.4-1.3-0.8
			c-0.2-0.6,0.2-1.3,1-1.5c0.4-0.1,0.7-0.1,1,0v0.6c-0.2-0.1-0.5-0.1-0.8,0c-0.5,0.1-0.6,0.5-0.6,0.7c0.1,0.3,0.4,0.4,0.9,0.5
			c0.7,0.1,1.2,0.3,1.4,0.9c0.2,0.6-0.2,1.3-1.2,1.6c-0.5,0.1-0.8,0.1-1.2,0L231,104.1z"/>
		<path d="M235.8,97.5l0.6-0.3l1.3,3.6c0.5,1.4-0.1,2.1-1,2.4c-0.3,0.1-0.6,0.2-0.7,0.1l-0.1-0.6c0.2,0,0.4,0,0.6-0.1
			c0.6-0.2,0.9-0.6,0.6-1.7L235.8,97.5z"/>
		<path d="M242.4,99.9c0.2,0.4,0.3,0.7,0.5,1l-0.6,0.3l-0.3-0.6l0,0c-0.1,0.4-0.3,0.9-0.9,1.2c-0.6,0.3-1.4,0.2-1.9-1.1l-0.9-2.2
			l0.6-0.3l0.8,2c0.3,0.7,0.7,1.1,1.3,0.8c0.5-0.2,0.6-0.6,0.6-1c0-0.1,0-0.3-0.1-0.4l-0.9-2.3l0.6-0.3L242.4,99.9z"/>
		<path d="M242.7,97.5c-0.2-0.4-0.4-0.6-0.6-0.9l0.6-0.3l0.4,0.6l0,0c0-0.5,0.3-1,0.8-1.3c0.5-0.3,1.5-0.4,2,0.8l1.1,2.1l-0.6,0.4
			l-1.1-2c-0.3-0.6-0.7-0.9-1.4-0.6c-0.5,0.2-0.6,0.7-0.6,1.1c0,0.1,0.1,0.2,0.1,0.4l1.1,2.1l-0.6,0.4L242.7,97.5z"/>
		<path d="M247.8,96.1c0.6,0.8,1.3,0.8,1.9,0.5c0.5-0.3,0.6-0.6,0.8-0.7l0.4,0.4c-0.2,0.3-0.5,0.6-1,0.9c-1.1,0.6-2.1,0.4-2.8-0.6
			c-0.6-1-0.6-2.2,0.5-2.9c1.1-0.7,2,0.1,2.4,0.7c0.1,0.1,0.1,0.3,0.2,0.3L247.8,96.1z M249.4,94.5c-0.3-0.4-0.8-0.9-1.5-0.5
			c-0.6,0.4-0.6,1.1-0.4,1.6L249.4,94.5z"/>
		<path d="M253.6,94.5l-0.3-0.4l0.1-0.8c0.3-1.9,0.4-2.9-0.2-3.5c-0.4-0.5-0.8-0.6-1.5-0.2c-0.4,0.3-0.6,0.7-0.6,1.1l-0.5-0.3
			c0.1-0.5,0.4-1,0.8-1.4c0.9-0.7,1.8-0.4,2.3,0.2c0.6,0.8,0.6,1.8,0.3,3.4l-0.1,0.6l0,0l1.9-1.5l0.4,0.5L253.6,94.5z"/>
		<path d="M258,87.2c1.3,1.4,1.5,2.6,0.6,3.4c-0.7,0.7-2,0.5-3.2-0.8c-1.3-1.3-1.4-2.6-0.6-3.3C255.6,85.6,256.8,85.9,258,87.2z
			 M255.9,89.2c0.9,1,1.8,1.3,2.3,0.8c0.6-0.6,0.2-1.4-0.7-2.4c-0.9-1-1.8-1.4-2.3-0.8C254.7,87.3,254.8,88.2,255.9,89.2z"/>
		<path d="M257.8,84.4L257.8,84.4l-0.3,1l-0.6-0.3l0.4-1.3l0.5-0.5l4.1,3.6l-0.5,0.6L257.8,84.4z"/>
		<path d="M262.9,85.1c0.1-0.1,0.2-0.3,0.4-0.5c0.2-0.4,0.3-0.8,0.3-1.2c0-0.5-0.3-1-0.7-1.5l0,0c0.1,0.5,0,0.9-0.3,1.4
			c-0.6,0.8-1.6,0.8-2.3,0.3c-0.8-0.6-1.1-1.8-0.5-2.7c0.6-0.9,1.8-0.9,3-0.1c0.9,0.7,1.4,1.6,1.5,2.3c0.1,0.6-0.1,1.2-0.4,1.8
			c-0.1,0.3-0.3,0.5-0.4,0.6L262.9,85.1z M260.5,82.9c0.6,0.4,1.2,0.4,1.6-0.2c0.3-0.4,0.4-0.8,0.2-1.2c0-0.1-0.1-0.2-0.2-0.2
			c-0.7-0.6-1.5-0.7-1.9-0.1C259.7,81.8,259.9,82.5,260.5,82.9z"/>
	</g>
</g>
<g>
	
		<linearGradient id="SVGID_00000176031108318327356270000016862657407481837996_" gradientUnits="userSpaceOnUse" x1="122.964" y1="21.7888" x2="206.5864" y2="105.4112" gradientTransform="matrix(1 0 0 -1 0 126)">
		<stop  offset="0" style="stop-color:#B8B8B8"/>
		<stop  offset="1" style="stop-color:#EDEDED"/>
	</linearGradient>
	<path style="fill:url(#SVGID_00000176031108318327356270000016862657407481837996_);" d="M99.5,62.4c0,28.9,29.2,52.2,65.3,52.2
		s65.3-23.4,65.3-52.2s-29.2-52.2-65.3-52.2C128.7,10.2,99.5,33.5,99.5,62.4"/>
	
		<linearGradient id="SVGID_00000020372585467626549830000012027787643015712955_" gradientUnits="userSpaceOnUse" x1="125.0443" y1="23.8886" x2="204.4867" y2="103.331" gradientTransform="matrix(1 0 0 -1 0 126)">
		<stop  offset="0" style="stop-color:#DBDBDB"/>
		<stop  offset="1" style="stop-color:#FFFFFF"/>
	</linearGradient>
	<path style="fill:url(#SVGID_00000020372585467626549830000012027787643015712955_);" d="M102.4,62.4c0,27.2,27.9,49.3,62.3,49.3
		s62.3-22.1,62.3-49.3s-27.9-49.3-62.3-49.3C130.4,13.1,102.4,35.1,102.4,62.4"/>
	<g>
		<path d="M113.5,50.9l-0.3,0.7l2.9,1.1l-0.8,2l-7.8-3.1l1.1-2.8c0.8-2,2-2.7,3.6-2c1,0.4,1.5,1.1,1.6,1.9l3.4-0.4l0.5,0.2l-0.7,1.9
			L113.5,50.9z M111.8,51.1l0.3-0.6c0.3-0.7,0.1-1.2-0.6-1.5c-0.6-0.3-1.2-0.1-1.5,0.6l-0.3,0.6L111.8,51.1z"/>
		<path d="M116.6,45.6c0.9,0.5,1.5,0.3,1.9-0.5c0.4-0.6,0.5-1.1,0.5-1.6l0.4-0.6l1.1,0.7c0,0.6-0.2,1.4-0.8,2.4
			c-1.2,1.8-2.8,2-4.4,0.9c-1.7-1.1-2-2.9-1-4.4c1-1.6,2.4-1.8,4.3-0.6c0.2,0.1,0.4,0.3,0.5,0.3L116.6,45.6z M115.7,45l1-1.6
			c-0.8-0.5-1.3-0.4-1.6,0.1C114.9,43.8,114.9,44.3,115.7,45z"/>
		<path d="M118.9,41.5c-1.5-1.4-1.5-3.2-0.1-4.7c0.6-0.6,1.2-1,1.7-1.1l1.1,1l-0.5,0.6c-0.3,0-0.6,0.2-1,0.6
			c-0.6,0.6-0.5,1.4,0.4,2.2c0.8,0.8,1.6,0.8,2.1,0.2c0.5-0.5,0.5-0.8,0.5-1.2l0.5-0.6l1,0.9c-0.1,0.5-0.3,1.2-1,1.9
			C122.1,42.8,120.5,42.9,118.9,41.5z"/>
		<path d="M122.9,37.2c-1.3-1.6-1-3.4,0.5-4.6c1.4-1.2,3.3-1.1,4.5,0.5c1.3,1.6,0.9,3.3-0.5,4.5C126,38.8,124.2,38.8,122.9,37.2z
			 M126.2,34.5c-0.8-0.9-1.5-1.1-2-0.6c-0.6,0.5-0.6,1.2,0.3,2.1c0.8,0.9,1.5,1.1,2,0.6C127,36.1,127,35.4,126.2,34.5z"/>
		<path d="M128.9,29.6c0.2-0.6,0.6-1.4,1.4-1.8c0.6-0.4,1.2-0.5,1.8,0c0.2-0.7,0.7-1.5,1.5-1.8c0.7-0.5,1.6-0.5,2.3,0.7l2.3,4
			l-1.8,1l-2-3.5c-0.3-0.5-0.6-0.5-0.9-0.3c-0.3,0.2-0.6,0.4-0.6,0.6l2.3,3.9l-1.8,1l-2-3.5c-0.3-0.5-0.6-0.5-0.9-0.3
			c-0.3,0.2-0.6,0.4-0.7,0.6l2.3,4l-1.8,1l-3.1-5.5l1.2-0.7C128.2,29,128.5,29,128.9,29.6z"/>
		<path d="M138.9,24.4c0.4-0.6,0.9-1.2,1.7-1.6c0.6-0.2,1.3-0.2,1.7,0.4c0.4-0.7,0.9-1.3,1.8-1.6c0.8-0.3,1.7-0.2,2.1,1.1l1.6,4.3
			l-1.9,0.7l-1.4-3.8c-0.2-0.5-0.5-0.6-0.8-0.5c-0.3,0.1-0.6,0.3-0.8,0.5l1.6,4.3l-1.9,0.7l-1.4-3.8c-0.2-0.5-0.5-0.6-0.8-0.5
			c-0.3,0.1-0.6,0.3-0.8,0.5l1.6,4.3l-1.9,0.7l-2.1-5.9l1.4-0.5C138.4,23.7,138.6,23.7,138.9,24.4z"/>
		<path d="M149.6,24c0.4,1,0.8,1.2,1.7,1c0.6-0.2,1.1-0.5,1.4-0.7l0.6-0.2l0.3,1.2c-0.5,0.4-1.1,0.8-2.3,1.1c-2,0.5-3.4-0.5-3.8-2.4
			c-0.5-1.9,0.6-3.5,2.3-3.9c1.8-0.4,3.1,0.4,3.5,2.5c0.1,0.3,0.1,0.5,0.1,0.6L149.6,24z M149.3,22.9l1.8-0.4
			c-0.3-0.9-0.6-1.2-1.1-1C149.6,21.5,149.2,21.9,149.3,22.9z"/>
		<path d="M156,20c0.5-0.6,1.2-1,2.1-1.1c0.9-0.1,1.7,0.2,1.8,1.6l0.6,4.5l-2,0.3l-0.5-4c-0.1-0.6-0.3-0.6-0.8-0.6
			c-0.4,0-0.7,0.2-1,0.3l0.5,4.5l-2,0.3l-0.7-6.2l1.5-0.2C155.6,19.2,155.8,19.4,156,20z"/>
		<path d="M165,24.3c-0.4,0.5-0.9,0.7-1.8,0.7c-1.4,0-2.4-1-2.5-3.1c0-2.5,1.3-3.3,2.5-3.3c0.7,0,1.2,0.2,1.6,0.6v-2.6h1.3
			c0.6,0,0.7,0.2,0.7,1.1l0.1,7.2h-1.5C165.2,24.9,165.1,24.9,165,24.3z M164.9,23.3v-2.9c-0.2-0.2-0.5-0.2-0.8-0.2
			c-0.6,0-1.2,0.3-1.2,1.7c0,1.3,0.4,1.8,1.1,1.8C164.3,23.7,164.6,23.6,164.9,23.3z"/>
		<path d="M169.7,22.5c0,1.1,0.5,1.4,1.3,1.5c0.6,0.1,1.2-0.1,1.6-0.4l0.6,0.1l-0.1,1.3c-0.6,0.3-1.3,0.6-2.6,0.4
			c-2.1-0.2-3.1-1.5-3-3.4c0.2-2,1.6-3.1,3.3-3c1.8,0.2,2.8,1.3,2.6,3.4c0,0.3-0.1,0.5-0.1,0.6L169.7,22.5z M169.8,21.3l1.8,0.2
			c0.1-0.9-0.3-1.3-0.8-1.4C170.4,20.1,170,20.3,169.8,21.3z"/>
		<path d="M178.1,25.7c-0.5,0.4-1,0.6-1.8,0.4c-1.4-0.3-2.2-1.5-1.8-3.6c0.5-2.4,1.9-3.1,3.1-2.8c0.7,0.2,1.1,0.5,1.5,0.9l0.5-2.5
			l1.3,0.3c0.6,0.1,0.7,0.3,0.6,1.2l-1.4,7.1l-1.5-0.3C178.3,26.3,178.1,26.2,178.1,25.7z M178.3,24.7l0.6-2.8
			c-0.2-0.2-0.5-0.3-0.7-0.4c-0.6-0.1-1.2,0.1-1.5,1.4s0,1.8,0.6,1.9C177.6,24.9,177.9,24.9,178.3,24.7z"/>
		<path d="M186,19.7l2.8,1c2,0.7,2.9,1.9,2.2,3.7c-0.6,1.8-2,2.1-4.1,1.4l-0.6-0.2l-1,2.8l-2.1-0.7L186,19.7z M186.8,24.2l0.6,0.2
			c0.8,0.3,1.3-0.1,1.6-0.7c0.3-0.7,0.2-1.2-0.7-1.5l-0.6-0.2L186.8,24.2z"/>
		<path d="M193.2,26.9l-1.8,3.9l-1.8-0.9l2.7-5.7l1.3,0.6c0.3,0.1,0.4,0.4,0.2,1c0.6-0.3,1.2-0.5,1.9-0.1c0.1,0.1,0.2,0.1,0.3,0.2
			l-0.7,1.6l-0.3-0.1C194.2,27.1,193.5,26.9,193.2,26.9z"/>
		<path d="M194.9,28.9c1-1.8,2.9-2.1,4.4-1.1c1.6,0.9,2.1,2.8,1.1,4.4c-1,1.8-2.9,2-4.4,1.1C194.5,32.4,193.9,30.7,194.9,28.9z
			 M198.6,31.2c0.6-1.1,0.6-1.8,0-2.1c-0.6-0.4-1.3-0.1-1.9,1c-0.6,1.1-0.6,1.8,0.1,2.1C197.3,32.4,198,32.3,198.6,31.2z"/>
		<path d="M202.1,30.1l0.3-0.4L204,31l-1.4,3.9l0,0l3.3-2.4l1.4,1.1l-0.3,0.4l-5.2,3.3l-1.7-1.3L202.1,30.1z"/>
		<path d="M203.8,38.9l4.3-4.5l0.9,0.9c0.5,0.5,0.4,0.6-0.3,1.4l-3.5,3.7L203.8,38.9z M209,33.3c0.4-0.5,1-0.5,1.5,0
			c0.5,0.5,0.5,1,0.1,1.5c-0.4,0.5-1,0.5-1.5,0C208.7,34.4,208.6,33.7,209,33.3z"/>
		<path d="M209,43.4c-0.6,0-1.2-0.2-1.7-0.8c-0.8-1-0.7-2.5,0.9-3.9c1.9-1.6,3.4-1.1,4.2-0.2c0.5,0.6,0.6,1.1,0.6,1.6l1.9-1.7l0.8,1
			c0.4,0.5,0.4,0.7-0.4,1.3l-5.5,4.6l-0.9-1.1C208.6,44.1,208.6,43.9,209,43.4z M209.7,42.8l2.2-1.8c0-0.3-0.2-0.6-0.4-0.7
			c-0.4-0.5-1-0.7-2,0.2c-1,0.8-1.1,1.4-0.7,1.9C209.1,42.6,209.3,42.7,209.7,42.8z"/>
		<path d="M213.3,46.3c-0.8,0.6-0.8,1.2-0.5,1.9c0.4,0.6,0.7,0.9,1.2,1.1l0.3,0.6l-1.1,0.6c-0.6-0.3-1.1-0.7-1.8-1.8
			c-1-1.8-0.6-3.4,1.2-4.3c1.8-1,3.5-0.5,4.3,1.1c0.9,1.7,0.5,3-1.4,4.1c-0.2,0.1-0.5,0.2-0.5,0.3L213.3,46.3z M214.3,45.8l0.9,1.7
			c0.8-0.5,0.9-0.9,0.6-1.4C215.6,45.6,215.3,45.3,214.3,45.8z"/>
		<path d="M217.8,52.1l-4.1,1.4l-0.6-1.9l5.9-2l0.5,1.4c0.1,0.3,0,0.6-0.6,0.8c0.6,0.2,1.2,0.6,1.4,1.3c0,0.1,0.1,0.3,0.1,0.4
			l-1.7,0.6l-0.1-0.3C218.4,52.9,218,52.4,217.8,52.1z"/>
	</g>
	
		<linearGradient id="SVGID_00000179628714196228934250000006219080597741638808_" gradientUnits="userSpaceOnUse" x1="136.3862" y1="35.211" x2="193.1643" y2="91.989" gradientTransform="matrix(1 0 0 -1 0 126)">
		<stop  offset="0" style="stop-color:#FFFFFF"/>
		<stop  offset="1" style="stop-color:#D1D1D1"/>
	</linearGradient>
	<path style="fill:url(#SVGID_00000179628714196228934250000006219080597741638808_);" d="M118.4,62.4c0,18,21.2,33.3,46.3,33.3
		c25.1,0,46.3-15.3,46.3-33.3s-21.2-33.3-46.3-33.3C139.7,29.1,118.4,44.4,118.4,62.4"/>
	
		<linearGradient id="SVGID_00000007411454321072138140000003377566935584939946_" gradientUnits="userSpaceOnUse" x1="138.4556" y1="37.3158" x2="191.0948" y2="89.9549" gradientTransform="matrix(1 0 0 -1 0 126)">
		<stop  offset="0" style="stop-color:#DBDBDB"/>
		<stop  offset="1" style="stop-color:#FFFFFF"/>
	</linearGradient>
	<path style="fill:url(#SVGID_00000007411454321072138140000003377566935584939946_);" d="M121.4,62.4c0,16.4,19.9,30.2,43.4,30.2
		s43.4-13.9,43.4-30.2c0-16.5-19.9-30.3-43.4-30.3C141.3,32.1,121.4,45.9,121.4,62.4"/>
	<g>
		<path class="st4" d="M145.9,63.2l-1.8-7.7c-0.3-1.2-0.6-1.6-1.7-1.6h-1.8l-2.1,9.2l-1.8-9.2h-3.8l3.6,15.5h3.2l2.4-8.9l2.4,8.9
			h3.1l3.7-15.5h-3.6L145.9,63.2z"/>
		<path class="st4" d="M158.9,57.5c-1.3,0-2.7,0.5-3.5,1.1v-3.3c0-0.8-0.3-1.3-1.2-1.3h-2.4v15.5h3.5v-8.8c0.7-0.2,1.4-0.3,2-0.3
			c0.7,0,1.2,0.2,1.2,1.1v8h3.5v-9C162.1,58.8,161.4,57.5,158.9,57.5"/>
		<rect x="163.1" y="57.8" class="st4" width="3.5" height="11.7"/>
		<path class="st4" d="M167.5,63.7c0,3.5,1.9,6.2,5.8,6.2c1.5,0,2.8-0.3,3.5-1v-2.2c-1.4,0.3-2,0.3-2.9,0.3c-1.8,0-2.8-1.2-2.8-3.2
			c0-1.9,0.9-3.2,2.8-3.2c0.8,0,1.5,0,2.9,0.3v-2.2c-0.7-0.6-2-1-3.5-1C169.4,57.5,167.5,60.2,167.5,63.7"/>
		<path class="st4" d="M184.7,57.5c-1.3,0-2.7,0.5-3.5,1.1v-3.3c0-0.8-0.3-1.3-1.2-1.3h-2.4v15.5h3.5v-8.8c0.7-0.2,1.4-0.3,2-0.3
			c0.7,0,1.2,0.2,1.2,1.1v8h3.5v-9C187.9,58.8,187.2,57.5,184.7,57.5"/>
		<path class="st4" d="M166.1,54h-2.3c-0.5,0-0.7,0.4-0.7,0.7V56c0,0.5,0.4,0.7,0.7,0.7h2.3c0.5,0,0.7-0.4,0.7-0.7v-1.3
			C166.8,54.4,166.4,54,166.1,54"/>
		<path d="M191.7,52.3c-1.5,0-3.3,0.5-4.4,1.3v2.3c1.2-0.3,2.6-0.4,3.1-0.4c1.7,0,2.7,0.5,2.7,1.8c0,1.2-0.6,1.6-1.6,2.4
			c-1.2,1.1-2.3,1.6-2.3,3.9v1.6h1.4h2.2v-1.2c0-1.4,0.7-1.8,1.9-2.9c1.4-1.2,2.1-2.5,2.1-4.4C196.9,54.3,195.1,52.3,191.7,52.3"/>
		<path d="M192.1,66.4h-2.2c-0.5,0-0.8,0.4-0.8,0.8v1.6c0,0.5,0.4,0.8,0.8,0.8h2.2c0.5,0,0.8-0.4,0.8-0.8v-1.6
			C193,66.7,192.6,66.4,192.1,66.4"/>
	</g>
	<g>
		<path d="M121.1,82.9l-4.3,3.6l-0.5-0.5l4.3-3.6L121.1,82.9z"/>
		<path d="M119.7,85.5c0.3-0.3,0.6-0.6,0.7-0.8l0.5,0.5l-0.5,0.5l0,0c0.5-0.1,1-0.1,1.5,0.5c0.4,0.4,0.7,1.3-0.2,2.2L120,90
			l-0.6-0.6l1.7-1.7c0.5-0.5,0.6-1,0.2-1.5c-0.4-0.4-0.8-0.4-1.2-0.2c-0.1,0-0.2,0.1-0.3,0.2l-1.8,1.7l-0.6-0.6L119.7,85.5z"/>
		<path d="M123.6,87.9l-0.9,2.2c-0.2,0.4-0.3,0.6-0.5,1l0,0c0.3-0.2,0.6-0.4,0.9-0.6l2.1-1.2l0.6,0.6l-3.9,2l-0.6-0.5l1.5-4.1
			L123.6,87.9z"/>
		<path d="M125.3,92.1c-0.6,0.8-0.3,1.5,0.3,1.9c0.5,0.3,0.7,0.5,1,0.5l-0.2,0.5c-0.3-0.1-0.7-0.2-1.2-0.6c-1-0.7-1.1-1.8-0.4-2.9
			c0.7-1,1.8-1.3,2.9-0.6c1.1,0.8,0.6,1.9,0.2,2.5c-0.1,0.1-0.2,0.2-0.2,0.3L125.3,92.1z M127.3,93c0.3-0.4,0.6-1.1-0.1-1.6
			c-0.6-0.5-1.3-0.1-1.7,0.3L127.3,93z"/>
		<path d="M127.5,95.1c0.1,0.3,0.4,0.6,0.6,0.7c0.5,0.3,0.8,0.2,1-0.1c0.2-0.3,0.1-0.6-0.2-1c-0.5-0.6-0.6-1.1-0.3-1.6
			c0.4-0.6,1.1-0.7,1.8-0.3c0.4,0.2,0.6,0.6,0.7,0.7l-0.5,0.4c-0.1-0.2-0.3-0.5-0.6-0.6c-0.4-0.3-0.7-0.2-0.8,0.1
			c-0.2,0.3-0.1,0.6,0.3,1c0.5,0.6,0.6,1.1,0.3,1.6c-0.4,0.6-1.1,0.7-1.9,0.2c-0.4-0.3-0.6-0.6-0.8-0.8L127.5,95.1z"/>
		<path d="M133.4,93.6l-0.6,1l0.9,0.6l-0.3,0.5l-0.9-0.6l-1.1,1.8c-0.3,0.5-0.3,0.7,0.1,0.9c0.2,0.1,0.3,0.2,0.4,0.2l-0.3,0.5
			c-0.2,0-0.4-0.1-0.6-0.3c-0.3-0.2-0.5-0.4-0.6-0.6c-0.1-0.3,0-0.6,0.3-1l1.1-1.9l-0.6-0.3l0.3-0.5l0.6,0.3l0.5-0.8L133.4,93.6z"/>
		<path d="M133.8,96.4c0.2-0.4,0.3-0.6,0.5-1l0.6,0.3l-0.3,0.6l0,0c0.4-0.3,0.8-0.4,1.5-0.1c0.5,0.3,0.7,0.7,0.6,1.2l0,0
			c0.2-0.2,0.5-0.3,0.6-0.3c0.3-0.1,0.6,0,0.9,0.1c0.5,0.3,1,0.9,0.5,2.1l-1,2.1l-0.6-0.3l1-2c0.4-0.7,0.3-1.3-0.3-1.5
			c-0.4-0.2-0.8,0-1.1,0.2c-0.1,0.1-0.2,0.2-0.2,0.3l-1.1,2.2l-0.6-0.3l1-2.2c0.3-0.6,0.2-1.1-0.3-1.4c-0.5-0.2-0.9,0-1.1,0.3
			c-0.1,0.1-0.2,0.2-0.2,0.3l-1,2.2l-0.6-0.3L133.8,96.4z"/>
		<path d="M140,100.4c-0.4,0.9,0.1,1.6,0.8,1.8c0.5,0.2,0.8,0.2,1.1,0.2l-0.1,0.6c-0.3,0-0.7,0-1.4-0.3c-1.2-0.5-1.6-1.5-1.2-2.6
			c0.5-1.1,1.5-1.8,2.6-1.4c1.2,0.5,1.2,1.7,0.9,2.4c-0.1,0.2-0.1,0.3-0.2,0.3L140,100.4z M142.2,100.6c0.2-0.5,0.3-1.2-0.6-1.5
			c-0.7-0.3-1.3,0.3-1.5,0.7L142.2,100.6z"/>
		<path d="M143.7,100.6c0.1-0.4,0.2-0.7,0.3-1l0.6,0.2l-0.2,0.6l0,0c0.3-0.3,0.8-0.6,1.5-0.4c0.6,0.2,1.3,0.7,0.9,2l-0.7,2.3
			l-0.7-0.2l0.6-2.2c0.2-0.6,0.1-1.2-0.6-1.4c-0.5-0.2-0.9,0.1-1.2,0.5c-0.1,0.1-0.1,0.2-0.2,0.3l-0.7,2.3l-0.7-0.2L143.7,100.6z"/>
		<path d="M149.4,99.9l-0.3,1.1l1,0.3l-0.1,0.6l-1-0.3l-0.6,2.1c-0.1,0.5-0.1,0.8,0.4,0.9c0.2,0,0.4,0.1,0.5,0.1l-0.1,0.6
			c-0.2,0-0.4,0-0.6-0.1c-0.4-0.1-0.6-0.3-0.7-0.5c-0.2-0.3-0.2-0.6,0-1.1l0.6-2.1l-0.6-0.2l0.1-0.6l0.6,0.2l0.2-0.9L149.4,99.9z"/>
		<path d="M152.7,100.2c0.4,0,0.8,0,1.4,0.1c0.7,0.1,1.2,0.4,1.5,0.7c0.3,0.3,0.4,0.7,0.3,1.2s-0.3,0.8-0.6,1.1
			c-0.5,0.4-1.1,0.5-1.8,0.4c-0.2,0-0.4-0.1-0.6-0.2l-0.4,2.2l-0.7-0.1L152.7,100.2z M152.9,103c0.2,0.1,0.4,0.1,0.6,0.2
			c0.8,0.2,1.5-0.2,1.6-0.9s-0.4-1.2-1.1-1.3c-0.3-0.1-0.6-0.1-0.6-0.1L152.9,103z"/>
		<path d="M156.8,100.5l0.7,0.1l-0.6,5.9l-0.8-0.1L156.8,100.5z"/>
		<path d="M160.3,106.8v-0.6l0,0c-0.3,0.3-0.7,0.6-1.3,0.6c-0.8-0.1-1.2-0.6-1.1-1.3c0.1-1,1-1.5,2.6-1.3v-0.1c0-0.4,0-0.9-0.8-1
			c-0.4,0-0.7,0.1-1.1,0.2l-0.1-0.5c0.4-0.2,0.8-0.3,1.4-0.3c1.2,0.1,1.5,0.9,1.4,1.8l-0.1,1.5c0,0.4,0,0.7,0,1L160.3,106.8z
			 M160.3,104.7c-0.8-0.1-1.8,0-1.8,0.7c0,0.5,0.3,0.7,0.6,0.7c0.6,0,0.9-0.3,1-0.6c0-0.1,0.1-0.2,0.1-0.3L160.3,104.7z"/>
		<path d="M163.1,101.7v1.2h1v0.6h-1l-0.1,2.2c0,0.5,0.1,0.8,0.6,0.8c0.2,0,0.4,0,0.5,0v0.6c-0.2,0.1-0.4,0.1-0.6,0.1
			c-0.4,0-0.6-0.1-0.8-0.4c-0.2-0.2-0.3-0.6-0.3-1l0.1-2.2h-0.6V103h0.6v-1L163.1,101.7z"/>
		<path d="M165.1,106.9l-0.1-3.5h-0.6v-0.6h0.6v-0.2c0-0.6,0.1-1.1,0.5-1.4c0.3-0.3,0.6-0.4,1-0.4c0.3,0,0.5,0.1,0.6,0.1l-0.1,0.6
			c-0.1-0.1-0.3-0.1-0.5-0.1c-0.6,0-0.7,0.6-0.7,1.2v0.2h1v0.6h-1l0.1,3.5H165.1z"/>
		<path d="M171.1,104.6c0.1,1.5-0.9,2.2-1.8,2.3c-1.1,0.1-2-0.6-2.1-1.9c-0.1-1.4,0.7-2.2,1.8-2.3
			C170.1,102.5,171,103.4,171.1,104.6z M167.8,104.8c0.1,0.9,0.6,1.5,1.3,1.5c0.7,0,1.2-0.7,1.1-1.7c0-0.6-0.5-1.6-1.3-1.5
			C168.1,103.3,167.8,104,167.8,104.8z"/>
		<path d="M171.9,103.7c-0.1-0.5-0.1-0.9-0.2-1.3l0.6-0.1l0.1,0.8l0,0c0.1-0.6,0.6-0.9,1-1c0.1,0,0.2,0,0.2,0l0.1,0.6
			c-0.1,0-0.2,0-0.3,0c-0.6,0.1-0.8,0.5-0.9,1c0,0.1,0,0.2,0,0.4l0.3,2.1l-0.7,0.1L171.9,103.7z"/>
		<path d="M174.4,103.4c-0.1-0.4-0.2-0.7-0.3-1.1l0.6-0.1l0.2,0.6l0,0c0.2-0.5,0.5-0.8,1.1-0.9c0.6-0.1,1,0.2,1.3,0.6l0,0
			c0.1-0.3,0.2-0.5,0.4-0.6c0.2-0.2,0.5-0.4,0.8-0.5c0.6-0.1,1.4,0.1,1.7,1.5l0.5,2.3l-0.7,0.1l-0.5-2.2c-0.2-0.7-0.6-1.2-1.1-1.1
			c-0.4,0.1-0.6,0.5-0.7,0.8c0,0.1,0,0.3,0,0.4l0.5,2.5l-0.7,0.1l-0.5-2.4c-0.1-0.6-0.5-1-1-0.9c-0.5,0.1-0.7,0.6-0.7,0.9
			c0,0.1,0,0.3,0,0.4l0.5,2.4l-0.7,0.1L174.4,103.4z"/>
		<path d="M181.5,104.1c0.3,0.1,0.6,0.1,1,0c0.6-0.1,0.7-0.5,0.6-0.8c-0.1-0.4-0.4-0.5-0.9-0.6c-0.7-0.1-1.2-0.4-1.3-0.8
			c-0.2-0.6,0.2-1.3,1-1.5c0.4-0.1,0.7-0.1,1,0v0.6c-0.2-0.1-0.5-0.1-0.8,0c-0.5,0.1-0.6,0.5-0.6,0.7c0.1,0.4,0.4,0.4,0.9,0.5
			c0.7,0.1,1.2,0.4,1.4,0.9c0.2,0.6-0.2,1.3-1.2,1.6c-0.5,0.1-0.8,0.1-1.2,0L181.5,104.1z"/>
		<path d="M190.4,99.5c-0.3-0.7-0.7-1.6-0.9-2.2l0,0c0.1,0.6,0.1,1.4,0.1,2.2v3l-0.6,0.2l-1.8-2.2c-0.6-0.6-1-1.3-1.4-1.8l0,0
			c0.3,0.6,0.6,1.6,0.7,2.4l0.7,2.3l-0.6,0.3l-1.7-5.5l0.8-0.4l1.8,2.2c0.5,0.6,0.8,1.1,1.2,1.6l0,0c-0.1-0.6-0.1-1.2-0.1-2v-2.9
			l0.8-0.4l2.3,5.2l-0.6,0.3L190.4,99.5z"/>
		<path d="M195.1,100l-0.3-0.5l0,0c-0.1,0.4-0.4,0.8-0.8,1.1c-0.7,0.4-1.4,0-1.7-0.6c-0.5-0.9,0.2-1.8,1.6-2.4v-0.1
			c-0.2-0.3-0.5-0.8-1.2-0.5c-0.4,0.2-0.6,0.5-0.8,0.7l-0.4-0.4c0.2-0.4,0.6-0.6,1-0.9c1.1-0.6,1.8,0.1,2.1,0.8l0.6,1.4
			c0.2,0.3,0.3,0.6,0.5,0.8L195.1,100z M194.1,98.2c-0.7,0.4-1.5,0.8-1.2,1.6c0.2,0.5,0.6,0.5,0.9,0.4c0.5-0.2,0.6-0.6,0.6-1
			c0-0.1,0-0.2-0.1-0.2L194.1,98.2z"/>
		<path d="M194.8,95.6l1.9,1.7c0.2,0.2,0.5,0.5,0.6,0.6l0,0c-0.1-0.3-0.1-0.6-0.2-0.8l-0.5-2.5l0.6-0.4l0.5,3.1
			c0.2,1.5,0.3,2.3,0,2.9c-0.2,0.5-0.5,0.7-0.6,0.8l-0.5-0.5c0.1-0.2,0.3-0.4,0.4-0.6c0.1-0.3,0.2-0.6,0.2-1c0-0.1,0-0.2,0-0.2
			s-0.1-0.1-0.1-0.2l-3.1-2.5L194.8,95.6z"/>
		<path d="M201.4,96.5l-0.3-0.4l0.2-0.8c0.4-1.8,0.6-2.9,0.1-3.5c-0.3-0.5-0.8-0.7-1.5-0.3c-0.4,0.3-0.6,0.7-0.7,1l-0.5-0.3
			c0.1-0.5,0.5-1,0.9-1.3c0.9-0.6,1.8-0.3,2.3,0.4c0.6,0.8,0.5,1.9,0.1,3.5l-0.1,0.6l0,0l2-1.4l0.4,0.5L201.4,96.5z"/>
		<path d="M205.9,89.6c1.2,1.5,1.3,2.7,0.4,3.4c-0.8,0.6-2,0.4-3.1-1c-1.1-1.4-1.2-2.7-0.3-3.4C203.7,87.8,204.8,88.3,205.9,89.6z
			 M203.7,91.5c0.9,1.1,1.8,1.5,2.2,1c0.6-0.5,0.3-1.4-0.6-2.5c-0.8-1-1.7-1.5-2.2-1C202.6,89.5,202.7,90.4,203.7,91.5z"/>
		<path d="M208.1,91.4l-0.3-0.4v-0.8c0.1-1.9,0.1-2.9-0.5-3.5c-0.4-0.4-0.9-0.6-1.5,0c-0.4,0.4-0.5,0.8-0.6,1.1l-0.6-0.2
			c0.1-0.5,0.3-1,0.7-1.5c0.8-0.8,1.8-0.6,2.3,0c0.6,0.7,0.7,1.8,0.6,3.4v0.6l0,0l1.8-1.7l0.5,0.5L208.1,91.4z"/>
		<path d="M211.4,83.9c1.4,1.2,1.7,2.4,0.9,3.3c-0.7,0.8-1.9,0.6-3.3-0.5c-1.4-1.2-1.6-2.5-0.8-3.3
			C208.9,82.7,210.1,82.8,211.4,83.9z M209.5,86.3c1,0.9,1.9,1.1,2.4,0.6c0.5-0.6,0.1-1.4-0.9-2.3c-1-0.9-1.8-1.2-2.4-0.6
			C208.1,84.4,208.4,85.2,209.5,86.3z"/>
	</g>
</g>
<g>
	
		<linearGradient id="SVGID_00000074413814320060846370000015798186355629861275_" gradientUnits="userSpaceOnUse" x1="73.5869" y1="21.7815" x2="157.2093" y2="105.404" gradientTransform="matrix(1 0 0 -1 0 126)">
		<stop  offset="0" style="stop-color:#B8B8B8"/>
		<stop  offset="1" style="stop-color:#EDEDED"/>
	</linearGradient>
	<path style="fill:url(#SVGID_00000074413814320060846370000015798186355629861275_);" d="M50.1,62.4c0,28.9,29.2,52.2,65.3,52.2
		s65.3-23.4,65.3-52.2s-29.2-52.2-65.3-52.2C79.4,10.2,50.1,33.5,50.1,62.4"/>
	
		<linearGradient id="SVGID_00000070828080419853147660000017685565619706994053_" gradientUnits="userSpaceOnUse" x1="75.7452" y1="23.8957" x2="155.1876" y2="103.3382" gradientTransform="matrix(1 0 0 -1 0 126)">
		<stop  offset="0" style="stop-color:#DBDBDB"/>
		<stop  offset="1" style="stop-color:#FFFFFF"/>
	</linearGradient>
	<path style="fill:url(#SVGID_00000070828080419853147660000017685565619706994053_);" d="M53.2,62.4c0,27.2,27.9,49.3,62.3,49.3
		s62.3-22.1,62.3-49.3s-27.9-49.3-62.3-49.3C81,13.1,53.2,35.1,53.2,62.4"/>
	<g>
		<path d="M64.2,50.9l-0.3,0.7l2.9,1.1l-0.8,2l-7.8-3.1l1.1-2.8c0.8-2,2-2.7,3.6-2c1,0.4,1.5,1.1,1.6,1.9l3.4-0.4l0.5,0.2l-0.7,2
			L64.2,50.9z M62.5,51.1l0.3-0.6c0.3-0.7,0.1-1.2-0.6-1.5c-0.6-0.3-1.2-0.1-1.5,0.6l-0.3,0.6L62.5,51.1z"/>
		<path d="M67.3,45.6c0.9,0.5,1.5,0.3,1.9-0.5c0.4-0.6,0.5-1.1,0.5-1.6l0.4-0.6l1.1,0.7c0,0.6-0.2,1.4-0.8,2.4
			c-1.2,1.8-2.8,2-4.4,0.9s-2-2.9-1-4.4c1-1.6,2.4-1.8,4.3-0.6c0.2,0.1,0.4,0.3,0.5,0.3L67.3,45.6z M66.4,45l1-1.6
			c-0.8-0.5-1.3-0.4-1.6,0.1C65.6,43.8,65.6,44.3,66.4,45z"/>
		<path d="M69.6,41.5c-1.5-1.4-1.5-3.2-0.1-4.7c0.6-0.6,1.2-1,1.7-1.1l1.1,1l-0.5,0.6c-0.3,0-0.6,0.2-1,0.6
			c-0.6,0.6-0.5,1.4,0.4,2.2c0.8,0.8,1.6,0.8,2.1,0.2c0.5-0.5,0.5-0.8,0.5-1.2l0.5-0.6l1,0.9c-0.1,0.5-0.3,1.2-1,1.9
			C72.8,42.8,71.1,42.9,69.6,41.5z"/>
		<path d="M73.6,37.2c-1.3-1.6-1-3.4,0.5-4.6c1.4-1.2,3.3-1.1,4.5,0.5c1.3,1.6,0.9,3.3-0.5,4.5C76.6,38.8,74.8,38.8,73.6,37.2z
			 M76.9,34.5c-0.8-0.9-1.5-1.1-2-0.6c-0.6,0.5-0.6,1.2,0.3,2.1s1.5,1.1,2,0.6C77.8,36.1,77.8,35.4,76.9,34.5z"/>
		<path d="M79.6,29.6c0.2-0.6,0.6-1.4,1.4-1.8c0.6-0.4,1.2-0.5,1.8,0c0.2-0.7,0.7-1.5,1.5-1.8c0.7-0.5,1.6-0.5,2.3,0.7l2.3,4l-1.8,1
			l-2-3.5c-0.3-0.5-0.6-0.5-0.9-0.3c-0.3,0.2-0.6,0.4-0.6,0.6l2.3,3.9l-1.8,1l-2-3.5c-0.3-0.5-0.6-0.5-0.9-0.3
			c-0.3,0.2-0.6,0.4-0.7,0.6l2,4.1l-1.8,1l-3.1-5.5l1.2-0.7C79,29,79.2,29,79.6,29.6z"/>
		<path d="M89.6,24.4c0.4-0.6,0.9-1.2,1.7-1.6c0.6-0.2,1.3-0.2,1.7,0.4c0.4-0.7,0.9-1.3,1.8-1.6c0.8-0.3,1.7-0.2,2.1,1.1l1.6,4.3
			l-1.9,0.7L95,24c-0.2-0.5-0.5-0.6-0.8-0.5c-0.3,0.1-0.6,0.3-0.8,0.5l1.6,4.3L93,29l-1.4-3.8c-0.2-0.5-0.5-0.6-0.8-0.5
			c-0.3,0.1-0.6,0.3-0.8,0.5l1.6,4.3l-1.9,0.7l-2.1-5.9l1.4-0.5C89.1,23.7,89.3,23.7,89.6,24.4z"/>
		<path d="M100.3,24c0.4,1,0.8,1.2,1.7,1c0.6-0.2,1.1-0.5,1.4-0.7l0.6-0.1l0.3,1.2c-0.5,0.4-1.1,0.8-2.3,1.1c-2,0.5-3.4-0.5-3.8-2.4
			c-0.5-1.9,0.6-3.5,2.3-3.9c1.8-0.4,3.1,0.4,3.5,2.5c0.1,0.3,0.1,0.5,0.1,0.6L100.3,24z M100,22.9l1.8-0.4c-0.3-0.9-0.6-1.2-1.1-1
			C100.3,21.5,99.9,21.9,100,22.9z"/>
		<path d="M106.7,20c0.5-0.6,1.2-1,2.1-1.1c0.9-0.1,1.7,0.2,1.8,1.6l0.6,4.5l-2,0.3l-0.5-4c-0.1-0.6-0.3-0.6-0.8-0.6
			c-0.4,0-0.7,0.2-1,0.3l0.5,4.5l-2,0.3l-0.7-6.2l1.5-0.2C106.3,19.2,106.5,19.4,106.7,20z"/>
		<path d="M115.7,24.3c-0.4,0.5-0.9,0.7-1.8,0.7c-1.4,0-2.4-1-2.5-3.1c0-2.5,1.3-3.3,2.5-3.3c0.7,0,1.2,0.2,1.6,0.6v-2.6h1.3
			c0.6,0,0.7,0.2,0.7,1.1l0.1,7.2h-1.5C115.9,24.9,115.8,24.9,115.7,24.3z M115.6,23.3v-2.9c-0.2-0.2-0.5-0.2-0.8-0.2
			c-0.6,0-1.2,0.3-1.2,1.7c0,1.3,0.4,1.8,1.1,1.8C115,23.7,115.3,23.6,115.6,23.3z"/>
		<path d="M120.4,22.5c0,1.1,0.5,1.4,1.3,1.5c0.6,0.1,1.2-0.1,1.6-0.4l0.6,0.1l-0.1,1.3c-0.6,0.3-1.3,0.6-2.6,0.4
			c-2.1-0.2-3.1-1.5-3-3.4c0.2-2,1.6-3.1,3.3-3c1.8,0.2,2.8,1.3,2.6,3.4c0,0.3-0.1,0.5-0.1,0.6L120.4,22.5z M120.5,21.3l1.8,0.2
			c0.1-0.9-0.3-1.3-0.8-1.4C121.1,20.1,120.7,20.3,120.5,21.3z"/>
		<path d="M128.8,25.7c-0.5,0.4-1,0.6-1.8,0.4c-1.4-0.3-2.2-1.5-1.8-3.6c0.5-2.4,1.9-3.1,3.1-2.8c0.7,0.2,1.1,0.5,1.5,0.9l0.5-2.5
			l1.3,0.3c0.6,0.1,0.7,0.3,0.6,1.2l-1.4,7.1l-1.5-0.3C129,26.3,128.8,26.2,128.8,25.7z M129,24.7l0.6-2.8c-0.2-0.2-0.5-0.3-0.7-0.4
			c-0.6-0.1-1.2,0.1-1.5,1.4s0,1.8,0.6,1.9C128.3,24.9,128.6,24.9,129,24.7z"/>
		<path d="M136.7,19.7l2.8,1c2,0.7,2.9,1.9,2.2,3.7s-2,2.1-4.1,1.4l-0.6-0.2l-1,2.8l-2.1-0.7L136.7,19.7z M137.5,24.2l0.6,0.2
			c0.8,0.3,1.3-0.1,1.6-0.7c0.3-0.7,0.2-1.2-0.7-1.5l-0.6-0.2L137.5,24.2z"/>
		<path d="M143.9,26.9l-1.8,3.9l-1.8-0.9l2.7-5.7l1.3,0.6c0.3,0.1,0.4,0.4,0.2,1c0.6-0.3,1.2-0.5,1.9-0.1c0.1,0.1,0.2,0.1,0.3,0.2
			l-0.7,1.6l-0.3-0.1C144.9,27.1,144.2,26.9,143.9,26.9z"/>
		<path d="M145.5,28.9c1-1.8,2.9-2.1,4.4-1.1c1.6,0.9,2.1,2.8,1.1,4.4c-1,1.8-2.9,2-4.4,1.1C145.2,32.4,144.5,30.7,145.5,28.9z
			 M149.3,31.2c0.6-1.1,0.6-1.8,0-2.1s-1.3-0.1-1.9,1c-0.6,1.1-0.6,1.8,0.1,2.1C148,32.4,148.7,32.3,149.3,31.2z"/>
		<path d="M152.8,30.1l0.3-0.4l1.6,1.2l-1.4,3.9l0,0l3.3-2.4l1.4,1.1l-0.3,0.4l-5.2,3.3l-1.7-1.3L152.8,30.1z"/>
		<path d="M154.4,38.9l4.3-4.5l0.9,0.9c0.5,0.5,0.4,0.6-0.3,1.4l-3.5,3.7L154.4,38.9z M159.7,33.3c0.4-0.5,1-0.5,1.5,0
			c0.5,0.5,0.5,1,0.1,1.5c-0.4,0.5-1,0.5-1.5,0C159.3,34.4,159.3,33.7,159.7,33.3z"/>
		<path d="M159.7,43.4c-0.6,0-1.2-0.2-1.7-0.8c-0.8-1-0.7-2.5,0.9-3.9c1.9-1.6,3.4-1.1,4.2-0.2c0.5,0.6,0.6,1.1,0.6,1.6l1.9-1.7
			l0.8,1c0.4,0.5,0.4,0.7-0.4,1.3l-5.5,4.6l-0.9-1.1C159.3,44.1,159.3,43.9,159.7,43.4z M160.4,42.8l2.2-1.8c0-0.3-0.2-0.6-0.4-0.7
			c-0.4-0.5-1-0.7-2,0.2c-1,0.8-1.1,1.4-0.7,1.9C159.8,42.6,160,42.7,160.4,42.8z"/>
		<path d="M164,46.3c-0.8,0.6-0.8,1.2-0.5,1.9c0.4,0.6,0.7,0.9,1.2,1.1l0.3,0.6l-1.1,0.6c-0.6-0.3-1.1-0.7-1.8-1.8
			c-1-1.8-0.6-3.4,1.2-4.3c1.8-1,3.5-0.5,4.3,1.1c0.9,1.7,0.5,3-1.4,4.1c-0.2,0.1-0.5,0.2-0.5,0.3L164,46.3z M165,45.8l0.9,1.7
			c0.8-0.5,0.9-0.9,0.6-1.4C166.3,45.6,166,45.3,165,45.8z"/>
		<path d="M168.5,52.1l-4.1,1.4l-0.6-1.9l5.9-2l0.5,1.4c0.1,0.3,0,0.6-0.6,0.8c0.6,0.2,1.2,0.6,1.4,1.3c0,0.1,0.1,0.3,0.1,0.4
			l-1.7,0.6l-0.1-0.3C169.1,52.9,168.7,52.4,168.5,52.1z"/>
	</g>
	
		<linearGradient id="SVGID_00000150784363512971385940000011954546050541687466_" gradientUnits="userSpaceOnUse" x1="87.0878" y1="35.2175" x2="143.8659" y2="91.9955" gradientTransform="matrix(1 0 0 -1 0 126)">
		<stop  offset="0" style="stop-color:#FFFFFF"/>
		<stop  offset="1" style="stop-color:#D1D1D1"/>
	</linearGradient>
	<path style="fill:url(#SVGID_00000150784363512971385940000011954546050541687466_);" d="M69.2,62.4c0,18,21.2,33.3,46.3,33.3
		c25.1,0,46.3-15.3,46.3-33.3s-21.2-33.3-46.3-33.3C90.3,29.1,69.2,44.4,69.2,62.4"/>
	
		<linearGradient id="SVGID_00000006682789504849976770000009345581517807740811_" gradientUnits="userSpaceOnUse" x1="89.1637" y1="37.3158" x2="141.8029" y2="89.9549" gradientTransform="matrix(1 0 0 -1 0 126)">
		<stop  offset="0" style="stop-color:#DBDBDB"/>
		<stop  offset="1" style="stop-color:#FFFFFF"/>
	</linearGradient>
	<path style="fill:url(#SVGID_00000006682789504849976770000009345581517807740811_);" d="M72.1,62.4c0,16.4,19.9,30.2,43.4,30.2
		s43.4-13.9,43.4-30.2c0-16.5-19.9-30.3-43.4-30.3C92,32.1,72.1,45.9,72.1,62.4"/>
	<g>
		<path class="st4" d="M96.5,63.2l-1.8-7.7C94.4,54.4,94,54,93,54h-1.8L89,63.2L87.2,54h-3.8L87,69.5h3.2l2.4-8.9l2.4,8.9h3.1
			l3.7-15.5h-3.6L96.5,63.2z"/>
		<path class="st4" d="M109.6,57.5c-1.3,0-2.7,0.5-3.5,1.1v-3.3c0-0.8-0.3-1.3-1.2-1.3h-2.4v15.5h3.5v-8.8c0.7-0.2,1.4-0.3,2-0.3
			c0.7,0,1.2,0.2,1.2,1.1v8h3.5v-9C112.8,58.8,112.2,57.5,109.6,57.5"/>
		<rect x="113.8" y="57.8" class="st4" width="3.5" height="11.7"/>
		<path class="st4" d="M118.2,63.7c0,3.5,1.9,6.2,5.8,6.2c1.5,0,2.8-0.3,3.5-1v-2.2c-1.4,0.3-2,0.3-2.9,0.3c-1.8,0-2.8-1.2-2.8-3.2
			c0-1.9,0.9-3.2,2.8-3.2c0.8,0,1.5,0,2.9,0.3v-2.2c-0.7-0.6-2-1-3.5-1C120,57.5,118.2,60.2,118.2,63.7"/>
		<path class="st4" d="M135.4,57.5c-1.3,0-2.7,0.5-3.5,1.1v-3.3c0-0.8-0.3-1.3-1.2-1.3h-2.4v15.5h3.5v-8.8c0.7-0.2,1.4-0.3,2-0.3
			c0.7,0,1.2,0.2,1.2,1.1v8h3.5v-9C138.6,58.8,138,57.5,135.4,57.5"/>
		<path class="st4" d="M116.8,54h-2.3c-0.5,0-0.7,0.4-0.7,0.7V56c0,0.5,0.4,0.7,0.7,0.7h2.3c0.5,0,0.7-0.4,0.7-0.7v-1.3
			C117.5,54.4,117.1,54,116.8,54"/>
		<path d="M142.4,52.3c-1.5,0-3.3,0.5-4.4,1.3v2.3c1.2-0.3,2.6-0.4,3.1-0.4c1.7,0,2.7,0.5,2.7,1.8c0,1.2-0.6,1.6-1.6,2.4
			c-1.2,1.1-2.3,1.6-2.3,3.9v1.6h1.4h2.2v-1.2c0-1.4,0.7-1.8,1.9-2.9c1.4-1.2,2.1-2.5,2.1-4.4C147.6,54.3,145.8,52.3,142.4,52.3"/>
		<path d="M142.9,66.4h-2.2c-0.5,0-0.8,0.4-0.8,0.8v1.6c0,0.5,0.4,0.8,0.8,0.8h2.2c0.5,0,0.8-0.4,0.8-0.8v-1.6
			C143.7,66.7,143.3,66.4,142.9,66.4"/>
	</g>
	<g>
		<path d="M71.8,83.1l-4.3,3.7L67,86.3l4.3-3.7L71.8,83.1z"/>
		<path d="M70.4,85.6c0.3-0.3,0.6-0.6,0.7-0.8l0.5,0.5l-0.4,0.6l0,0c0.5-0.1,1-0.1,1.5,0.5c0.4,0.4,0.7,1.3-0.2,2.2l-1.8,1.7
			l-0.6-0.6l1.7-1.7c0.5-0.5,0.6-1,0.2-1.5c-0.4-0.4-0.8-0.4-1.2-0.2c-0.1,0-0.2,0.1-0.3,0.2l-1.8,1.7l-0.6-0.6L70.4,85.6z"/>
		<path d="M74.4,88l-0.9,2.2c-0.2,0.4-0.3,0.6-0.5,1l0,0c0.3-0.2,0.6-0.4,0.9-0.6l2.1-1.2l0.6,0.5l-3.9,2l-0.6-0.5l1.5-4.1L74.4,88z
			"/>
		<path d="M76.1,92.2c-0.6,0.8-0.3,1.5,0.3,1.9c0.5,0.3,0.7,0.5,1,0.5L77.2,95c-0.3-0.1-0.7-0.2-1.2-0.6c-1-0.7-1.1-1.8-0.4-2.9
			c0.7-1,1.8-1.3,2.9-0.6c1.1,0.8,0.6,1.9,0.2,2.5c-0.1,0.1-0.2,0.2-0.2,0.3L76.1,92.2z M78.1,93c0.3-0.4,0.6-1.1-0.1-1.6
			c-0.6-0.5-1.3-0.1-1.7,0.3L78.1,93z"/>
		<path d="M78.3,95.2c0.1,0.3,0.4,0.6,0.6,0.7c0.5,0.3,0.8,0.2,1-0.1c0.2-0.3,0.1-0.6-0.3-1c-0.5-0.6-0.6-1.1-0.3-1.6
			c0.4-0.6,1.1-0.7,1.8-0.3c0.4,0.2,0.6,0.6,0.7,0.7l-0.5,0.4c-0.1-0.2-0.3-0.5-0.6-0.6c-0.4-0.3-0.7-0.2-0.8,0.1
			c-0.2,0.3-0.1,0.6,0.3,1c0.5,0.6,0.6,1.1,0.3,1.6c-0.4,0.6-1.1,0.7-1.9,0.2c-0.4-0.3-0.6-0.6-0.8-0.8L78.3,95.2z"/>
		<path d="M84.3,93.7l-0.6,1l0.9,0.6l-0.3,0.5l-0.9-0.6L82.4,97c-0.3,0.5-0.3,0.7,0.1,0.9c0.2,0.1,0.3,0.2,0.4,0.2l-0.3,0.5
			c-0.2,0-0.4-0.1-0.6-0.3c-0.3-0.2-0.5-0.4-0.6-0.6c-0.1-0.3,0-0.6,0.3-1l1.1-1.9l-0.6-0.3l0.3-0.5l0.6,0.3l0.5-0.8L84.3,93.7z"/>
		<path d="M84.6,96.4c0.2-0.4,0.3-0.6,0.5-1l0.6,0.3l-0.3,0.6l0,0c0.4-0.3,0.8-0.4,1.5-0.1c0.5,0.3,0.7,0.7,0.7,1.2l0,0
			c0.2-0.2,0.5-0.3,0.6-0.3c0.3-0.1,0.6,0,0.9,0.1c0.5,0.2,1,0.9,0.5,2.1l-1,2.1l-0.6-0.3l1-2c0.4-0.7,0.3-1.3-0.3-1.5
			c-0.4-0.2-0.8,0-1.1,0.2c-0.1,0.1-0.2,0.2-0.2,0.3l-1.1,2.2l-0.6-0.3l1-2.2c0.3-0.6,0.2-1.1-0.3-1.4c-0.5-0.2-0.9,0-1.1,0.3
			c-0.1,0.1-0.2,0.2-0.2,0.3l-1,2.2L83.4,99L84.6,96.4z"/>
		<path d="M90.8,100.4c-0.4,0.9,0.1,1.6,0.8,1.8c0.5,0.2,0.8,0.2,1.1,0.2l-0.1,0.6c-0.3,0-0.7,0-1.4-0.3c-1.2-0.5-1.6-1.5-1.2-2.6
			c0.5-1.1,1.5-1.8,2.6-1.4c1.2,0.5,1.2,1.7,0.9,2.4c-0.1,0.2-0.1,0.3-0.2,0.3L90.8,100.4z M93,100.7c0.2-0.5,0.3-1.2-0.6-1.5
			c-0.7-0.3-1.3,0.3-1.5,0.7L93,100.7z"/>
		<path d="M94.6,100.7c0.1-0.4,0.2-0.7,0.3-1l0.6,0.2l-0.2,0.6l0,0c0.3-0.3,0.8-0.6,1.5-0.4c0.6,0.2,1.3,0.7,0.9,2l-0.6,2.3
			l-0.7-0.2l0.6-2.2c0.2-0.6,0.1-1.2-0.6-1.4c-0.5-0.2-0.9,0.1-1.2,0.5c-0.1,0.1-0.1,0.2-0.2,0.3l-0.7,2.3l-0.7-0.2L94.6,100.7z"/>
		<path d="M100.2,99.9l-0.3,1.1l1,0.3l-0.1,0.5l-1-0.3l-0.6,2.1c-0.1,0.5,0,0.8,0.4,0.9c0.2,0,0.4,0.1,0.5,0.1l-0.1,0.6
			c-0.2,0-0.4,0-0.6-0.1c-0.4-0.1-0.6-0.3-0.7-0.5c-0.2-0.3-0.2-0.6,0-1.1l0.6-2.1l-0.6-0.2l0.1-0.6l0.6,0.2l0.2-0.9H100.2z"/>
		<path d="M103.6,100.2c0.4,0,0.8,0,1.4,0.1c0.7,0.1,1.2,0.4,1.5,0.7c0.3,0.3,0.4,0.7,0.3,1.2s-0.3,0.8-0.6,1.1
			c-0.5,0.4-1.1,0.5-1.8,0.4c-0.2,0-0.4-0.1-0.6-0.2l-0.4,2.2l-0.7-0.1L103.6,100.2z M103.8,103.1c0.2,0.1,0.4,0.1,0.6,0.2
			c0.8,0.2,1.5-0.2,1.6-0.9c0.1-0.7-0.4-1.2-1.1-1.3c-0.3-0.1-0.6-0.1-0.6-0.1L103.8,103.1z"/>
		<path d="M107.6,100.5l0.7,0.1l-0.6,5.9l-0.7-0.1L107.6,100.5z"/>
		<path d="M111.1,106.8v-0.6l0,0c-0.3,0.3-0.7,0.6-1.3,0.6c-0.8-0.1-1.2-0.6-1.2-1.3c0.1-1,1-1.5,2.6-1.3v-0.1c0-0.4,0-0.9-0.8-1
			c-0.4,0-0.7,0.1-1.1,0.2l-0.1-0.5c0.4-0.2,0.8-0.3,1.4-0.3c1.2,0.1,1.5,0.9,1.4,1.8l-0.1,1.5c0,0.4,0,0.7,0,1L111.1,106.8z
			 M111.2,104.7c-0.8-0.1-1.8,0-1.8,0.8c0,0.5,0.3,0.7,0.6,0.7c0.6,0,0.9-0.3,1-0.6c0-0.1,0.1-0.2,0.1-0.2L111.2,104.7z"/>
		<path d="M113.9,101.7v1.2h1v0.6h-1l-0.1,2.2c0,0.5,0.1,0.8,0.6,0.8c0.2,0,0.4,0,0.5,0v0.6c-0.2,0.1-0.4,0.1-0.6,0.1
			c-0.4,0-0.6-0.1-0.8-0.4c-0.2-0.2-0.3-0.6-0.3-1l0.1-2.2h-0.6V103h0.6v-1L113.9,101.7z"/>
		<path d="M115.9,106.9l-0.1-3.5h-0.6v-0.6h0.6v-0.2c0-0.6,0.1-1.1,0.5-1.4c0.3-0.3,0.6-0.4,1-0.4c0.3,0,0.5,0.1,0.6,0.1l-0.1,0.6
			c-0.1-0.1-0.3-0.1-0.5-0.1c-0.6,0-0.7,0.6-0.7,1.2v0.2h1v0.6h-1l0.1,3.5H115.9z"/>
		<path d="M122,104.6c0.1,1.5-0.9,2.2-1.8,2.3c-1.1,0.1-2-0.6-2.1-1.9c-0.1-1.4,0.7-2.2,1.8-2.3C121,102.5,121.9,103.4,122,104.6z
			 M118.7,104.8c0.1,0.9,0.6,1.5,1.3,1.5c0.7,0,1.2-0.7,1.1-1.7c0-0.6-0.5-1.6-1.3-1.5C119,103.2,118.6,104,118.7,104.8z"/>
		<path d="M122.7,103.7c-0.1-0.5-0.1-0.9-0.2-1.3l0.6-0.1l0.1,0.8l0,0c0.1-0.6,0.6-0.9,1-1c0.1,0,0.2,0,0.2,0l0.1,0.6
			c-0.1,0-0.2,0-0.3,0c-0.6,0.1-0.8,0.5-0.9,1c0,0.1,0,0.2,0,0.4l0.3,2.1l-0.7,0.1L122.7,103.7z"/>
		<path d="M125.2,103.3c-0.1-0.4-0.2-0.7-0.3-1.1l0.6-0.1l0.2,0.6l0,0c0.2-0.5,0.5-0.8,1.1-0.9c0.6-0.1,1,0.2,1.3,0.6l0,0
			c0.1-0.3,0.2-0.5,0.4-0.6c0.2-0.2,0.5-0.4,0.8-0.5c0.6-0.1,1.4,0.1,1.7,1.5l0.5,2.3l-0.7,0.1l-0.5-2.2c-0.2-0.7-0.6-1.2-1.1-1
			c-0.4,0.1-0.6,0.5-0.7,0.8c0,0.1,0,0.3,0,0.4l0.5,2.5l-0.7,0.1l-0.5-2.4c-0.1-0.6-0.5-1-1-0.9c-0.5,0.1-0.7,0.6-0.7,0.9
			c0,0.1,0,0.3,0,0.4l0.5,2.4l-0.7,0.1L125.2,103.3z"/>
		<path d="M132.3,104.1c0.3,0.1,0.6,0.1,1,0c0.6-0.2,0.7-0.5,0.6-0.8c-0.1-0.4-0.4-0.5-0.9-0.6c-0.7-0.1-1.2-0.4-1.3-0.8
			c-0.2-0.6,0.2-1.3,1-1.5c0.4-0.1,0.7-0.1,1,0v0.6c-0.2-0.1-0.5-0.1-0.8,0c-0.5,0.1-0.6,0.5-0.6,0.7c0.1,0.3,0.4,0.4,0.9,0.5
			c0.7,0.1,1.2,0.3,1.4,0.9c0.2,0.6-0.2,1.3-1.2,1.6c-0.5,0.1-0.8,0.1-1.2,0L132.3,104.1z"/>
		<path d="M141.2,99.4c-0.3-0.7-0.7-1.6-0.9-2.2l0,0c0.1,0.6,0.1,1.4,0.1,2.2v3l-0.6,0.2l-1.8-2.2c-0.6-0.6-1-1.3-1.4-1.8l0,0
			c0.3,0.6,0.6,1.6,0.7,2.4l0.7,2.3l-0.6,0.3l-1.7-5.5l0.8-0.4l1.8,2.2c0.5,0.6,0.8,1.1,1.2,1.6l0,0c-0.1-0.6-0.1-1.2-0.1-2v-3
			l0.8-0.4l2.3,5.2l-0.6,0.3L141.2,99.4z"/>
		<path d="M145.9,99.9l-0.3-0.5l0,0c-0.1,0.4-0.4,0.8-0.8,1.1c-0.7,0.4-1.4,0-1.7-0.6c-0.5-0.9,0.1-1.8,1.6-2.4v-0.1
			c-0.2-0.3-0.5-0.8-1.2-0.5c-0.4,0.2-0.6,0.5-0.8,0.7l-0.4-0.4c0.2-0.4,0.6-0.6,1-0.9c1.1-0.6,1.8,0.1,2.1,0.8l0.6,1.4
			c0.2,0.3,0.3,0.6,0.5,0.8L145.9,99.9z M145,98.1c-0.7,0.4-1.5,0.8-1.2,1.6c0.2,0.5,0.6,0.5,0.9,0.4c0.5-0.2,0.6-0.6,0.6-1
			c0-0.1,0-0.2-0.1-0.2L145,98.1z"/>
		<path d="M145.7,95.5l1.9,1.7c0.2,0.2,0.5,0.5,0.6,0.6l0,0c-0.1-0.3-0.1-0.6-0.2-0.8l-0.5-2.5l0.6-0.4l0.5,3.1
			c0.2,1.5,0.3,2.3,0,2.9c-0.2,0.5-0.5,0.7-0.6,0.8l-0.5-0.5c0.1-0.2,0.3-0.4,0.4-0.6c0.1-0.3,0.2-0.6,0.2-1c0-0.1,0-0.2,0-0.2
			s-0.1-0.1-0.1-0.2l-3.1-2.5L145.7,95.5z"/>
		<path d="M152.2,96.4l-0.3-0.4l0.2-0.8c0.4-1.8,0.6-2.9,0.1-3.5c-0.3-0.5-0.8-0.7-1.5-0.3c-0.4,0.3-0.6,0.7-0.6,1l-0.5-0.3
			c0.1-0.5,0.5-1,0.9-1.3c0.9-0.6,1.8-0.3,2.3,0.4c0.6,0.8,0.5,1.9,0.1,3.5l-0.3,0.6l0,0l2-1.4l0.4,0.5L152.2,96.4z"/>
		<path d="M156.7,89.5c1.2,1.5,1.3,2.7,0.4,3.4c-0.8,0.6-2,0.4-3.1-1c-1.1-1.4-1.2-2.7-0.3-3.4C154.5,87.8,155.6,88.2,156.7,89.5z
			 M154.5,91.4c0.9,1.1,1.8,1.5,2.2,1c0.6-0.5,0.3-1.4-0.6-2.5c-0.8-1-1.7-1.5-2.2-1S153.5,90.3,154.5,91.4z"/>
		<path d="M158.9,91.3l-0.3-0.4v-0.8c0.1-1.9,0.1-2.9-0.5-3.5c-0.4-0.4-0.9-0.6-1.5,0c-0.4,0.4-0.5,0.8-0.6,1.1l-0.6-0.2
			c0.1-0.5,0.3-1,0.7-1.5c0.8-0.8,1.8-0.6,2.3,0c0.7,0.7,0.7,1.8,0.6,3.4V90l0,0l1.8-1.7l0.5,0.5L158.9,91.3z"/>
		<path d="M159.2,84.3L159.2,84.3l-0.3,1l-0.6-0.3l0.4-1.3l0.4-0.5l4.1,3.6l-0.5,0.6L159.2,84.3z"/>
	</g>
</g>
<g>
	
		<linearGradient id="SVGID_00000086678025425389358360000018335174283068700575_" gradientUnits="userSpaceOnUse" x1="24.2042" y1="21.7797" x2="107.8642" y2="105.4397" gradientTransform="matrix(1 0 0 -1 0 126)">
		<stop  offset="0" style="stop-color:#B8B8B8"/>
		<stop  offset="1" style="stop-color:#EDEDED"/>
	</linearGradient>
	<path style="fill:url(#SVGID_00000086678025425389358360000018335174283068700575_);" d="M0.7,62.4c0,28.9,29.2,52.2,65.3,52.2
		s65.3-23.4,65.3-52.2c0.1-28.9-29.1-52.2-65.2-52.2S0.7,33.5,0.7,62.4"/>
	
		<linearGradient id="SVGID_00000178184986867467873200000007139995330448228760_" gradientUnits="userSpaceOnUse" x1="26.2754" y1="23.8886" x2="105.7178" y2="103.331" gradientTransform="matrix(1 0 0 -1 0 126)">
		<stop  offset="0" style="stop-color:#DBDBDB"/>
		<stop  offset="1" style="stop-color:#FFFFFF"/>
	</linearGradient>
	<path style="fill:url(#SVGID_00000178184986867467873200000007139995330448228760_);" d="M3.7,62.4c0,27.2,27.9,49.3,62.3,49.3
		s62.3-22.1,62.3-49.3S100.4,13.1,66,13.1C31.6,13.1,3.7,35.1,3.7,62.4"/>
	<g>
		<path d="M14.8,50.9l-0.3,0.7l2.9,1.1l-0.8,2l-7.8-3.1L9.9,49c0.8-2,2-2.7,3.6-2c1,0.4,1.5,1.1,1.6,1.9l3.4-0.4l0.5,0.2l-0.7,1.9
			L14.8,50.9z M13.1,51.1l0.3-0.6c0.3-0.7,0.1-1.2-0.6-1.5c-0.6-0.3-1.2-0.1-1.5,0.6l-0.3,0.6L13.1,51.1z"/>
		<path d="M17.9,45.6c0.9,0.5,1.5,0.3,1.9-0.5c0.4-0.6,0.5-1.1,0.5-1.6l0.4-0.6l1.1,0.7c0,0.6-0.2,1.4-0.8,2.4
			c-1.2,1.8-2.8,2-4.4,0.9c-1.7-1.1-2-2.9-1-4.4c1-1.6,2.4-1.8,4.3-0.6c0.2,0.1,0.4,0.3,0.5,0.3L17.9,45.6z M17,45l1-1.6
			c-0.8-0.5-1.3-0.4-1.6,0.1C16.3,43.8,16.2,44.3,17,45z"/>
		<path d="M20.2,41.5c-1.5-1.4-1.5-3.2-0.1-4.7c0.6-0.6,1.2-1,1.7-1.1l1.1,1l-0.5,0.6c-0.3,0-0.6,0.2-1,0.6
			c-0.6,0.6-0.5,1.4,0.4,2.2s1.6,0.8,2.1,0.2c0.5-0.5,0.5-0.8,0.5-1.2l0.5-0.6l1,0.9c-0.1,0.5-0.3,1.2-1,1.9
			C23.4,42.8,21.7,42.9,20.2,41.5z"/>
		<path d="M24.1,37.2c-1.3-1.6-1-3.4,0.5-4.6c1.4-1.2,3.3-1.1,4.5,0.5c1.3,1.6,0.9,3.3-0.5,4.5S25.4,38.8,24.1,37.2z M27.5,34.5
			c-0.8-0.9-1.5-1.1-2-0.6c-0.6,0.5-0.6,1.2,0.3,2.1c0.8,0.9,1.5,1.1,2,0.6C28.3,36.1,28.4,35.4,27.5,34.5z"/>
		<path d="M30.2,29.6c0.2-0.6,0.6-1.4,1.4-1.8c0.6-0.4,1.2-0.5,1.8,0c0.2-0.7,0.7-1.5,1.5-1.8c0.7-0.5,1.6-0.5,2.3,0.7l2.3,4l-1.8,1
			l-2-3.5c-0.3-0.5-0.6-0.5-0.9-0.3c-0.3,0.2-0.6,0.4-0.6,0.6l2.3,3.9l-1.8,1l-2-3.5c-0.3-0.5-0.6-0.5-0.9-0.3
			c-0.3,0.2-0.6,0.4-0.7,0.6l2.3,4l-1.8,1l-3.1-5.5l1.2-0.7C29.6,29,29.8,29,30.2,29.6z"/>
		<path d="M40.2,24.4c0.4-0.6,0.9-1.2,1.7-1.6c0.6-0.2,1.3-0.2,1.7,0.4c0.4-0.7,0.9-1.3,1.8-1.6c0.8-0.3,1.7-0.2,2.1,1.1l1.6,4.3
			L47,27.8L45.7,24c-0.2-0.5-0.5-0.6-0.8-0.5c-0.3,0.1-0.6,0.3-0.8,0.5l1.6,4.3L43.6,29l-1.4-3.8c-0.2-0.5-0.5-0.6-0.8-0.5
			c-0.3,0.1-0.6,0.3-0.8,0.5l1.6,4.3l-1.9,0.7l-2.1-5.9l1.4-0.5C39.7,23.7,39.9,23.7,40.2,24.4z"/>
		<path d="M50.9,24c0.4,1,0.8,1.2,1.7,1c0.6-0.2,1.1-0.5,1.4-0.7l0.6-0.1l0.3,1.2c-0.5,0.4-1.1,0.8-2.3,1.1c-2,0.5-3.4-0.5-3.8-2.4
			c-0.5-1.9,0.6-3.5,2.3-3.9c1.8-0.4,3.1,0.4,3.5,2.5c0.1,0.3,0.1,0.5,0.1,0.6L50.9,24z M50.7,22.9l1.8-0.4c-0.3-0.9-0.6-1.2-1.1-1
			C50.9,21.5,50.6,21.9,50.7,22.9z"/>
		<path d="M57.3,20c0.5-0.6,1.2-1,2.1-1.1c0.9-0.1,1.7,0.2,1.8,1.6l0.6,4.5l-2.2,0.3l-0.5-4c-0.1-0.6-0.3-0.6-0.8-0.6
			c-0.4,0-0.7,0.2-1,0.3l0.5,4.5l-2,0.3l-0.6-6.2l1.5-0.2C56.9,19.2,57.1,19.4,57.3,20z"/>
		<path d="M66.3,24.3c-0.4,0.5-0.9,0.7-1.8,0.7c-1.4,0-2.4-1-2.5-3.1c0-2.5,1.3-3.3,2.5-3.3c0.7,0,1.2,0.2,1.6,0.6v-2.6h1.3
			c0.6,0,0.7,0.2,0.7,1.1l0.1,7.2h-1.5C66.6,24.9,66.4,24.9,66.3,24.3z M66.2,23.3v-2.9c-0.2-0.2-0.5-0.2-0.8-0.2
			c-0.6,0-1.2,0.3-1.2,1.7c0,1.3,0.4,1.8,1.1,1.8C65.6,23.7,65.9,23.6,66.2,23.3z"/>
		<path d="M71,22.5c0,1.1,0.5,1.4,1.3,1.5c0.6,0.1,1.2-0.1,1.6-0.4l0.6,0.1l-0.1,1.3c-0.6,0.3-1.3,0.6-2.6,0.4
			c-2.1-0.2-3.1-1.5-3-3.4c0.2-2,1.6-3.1,3.3-3c1.8,0.2,2.8,1.3,2.6,3.4c0,0.3-0.1,0.5-0.1,0.6L71,22.5z M71.1,21.3l1.8,0.2
			c0.1-0.9-0.3-1.3-0.8-1.4C71.6,20.1,71.3,20.3,71.1,21.3z"/>
		<path d="M79.4,25.7c-0.5,0.4-1,0.6-1.8,0.4c-1.4-0.3-2.2-1.5-1.8-3.6c0.5-2.4,1.9-3.1,3.1-2.8c0.7,0.2,1.1,0.5,1.5,0.9l0.5-2.5
			l1.3,0.3c0.6,0.1,0.7,0.3,0.6,1.2l-1.4,7.1l-1.5-0.3C79.6,26.3,79.4,26.2,79.4,25.7z M79.6,24.7l0.6-2.8c-0.2-0.2-0.5-0.3-0.7-0.4
			c-0.6-0.1-1.2,0.1-1.5,1.4c-0.3,1.3,0,1.8,0.6,1.9C79,24.9,79.2,24.9,79.6,24.7z"/>
		<path d="M87.3,19.7l2.8,1c2,0.7,2.9,1.9,2.2,3.7s-2,2.1-4.1,1.4l-0.6-0.2l-1,2.8l-2.1-0.7L87.3,19.7z M88,24.2l0.6,0.2
			c0.8,0.3,1.3-0.1,1.6-0.7c0.3-0.7,0.2-1.2-0.7-1.5L88.8,22L88,24.2z"/>
		<path d="M94.5,26.9l-1.8,3.9l-1.8-0.9l2.7-5.7l1.3,0.6c0.3,0.1,0.4,0.4,0.2,1c0.6-0.3,1.2-0.5,1.9-0.1c0.1,0.1,0.2,0.1,0.3,0.2
			l-0.7,1.6l-0.3-0.1C95.4,27,94.9,26.9,94.5,26.9z"/>
		<path d="M96.2,28.9c1-1.8,2.9-2.1,4.4-1.1c1.6,0.9,2.1,2.8,1.1,4.4c-1,1.8-2.9,2-4.4,1.1C95.8,32.4,95.1,30.7,96.2,28.9z
			 M99.9,31.2c0.6-1.1,0.6-1.8,0-2.1s-1.3-0.1-1.9,1c-0.6,1.1-0.6,1.8,0.1,2.1C98.6,32.4,99.3,32.3,99.9,31.2z"/>
		<path d="M103.5,30.1l0.3-0.4l1.6,1.2l-1.4,3.9l0,0l3.3-2.4l1.4,1.1l-0.3,0.4l-5.2,3.3l-1.7-1.3L103.5,30.1z"/>
		<path d="M105,38.9l4.3-4.5l0.9,0.9c0.5,0.5,0.4,0.6-0.3,1.4l-3.5,3.7L105,38.9z M110.3,33.3c0.4-0.5,1-0.5,1.5,0
			c0.5,0.5,0.5,1,0.1,1.5c-0.4,0.5-1,0.5-1.5,0C109.9,34.4,109.9,33.7,110.3,33.3z"/>
		<path d="M110.2,43.4c-0.6,0-1.2-0.2-1.7-0.8c-0.8-1-0.7-2.5,0.9-3.9c1.9-1.6,3.4-1.1,4.2-0.2c0.5,0.6,0.6,1.1,0.6,1.6l1.9-1.7
			l0.8,1c0.4,0.5,0.4,0.7-0.4,1.3l-5.5,4.6l-0.9-1.1C109.9,44.1,109.9,43.9,110.2,43.4z M111,42.8l2.2-1.8c0-0.3-0.2-0.6-0.4-0.7
			c-0.4-0.5-1-0.7-2,0.2c-1,0.8-1.1,1.4-0.7,1.9C110.3,42.5,110.6,42.7,111,42.8z"/>
		<path d="M114.6,46.3c-0.8,0.6-0.8,1.2-0.5,1.9c0.4,0.6,0.7,0.9,1.2,1.1l0.3,0.6l-1.1,0.6c-0.6-0.3-1.1-0.7-1.8-1.8
			c-1-1.8-0.6-3.4,1.2-4.3c1.8-1,3.5-0.5,4.3,1.1c0.9,1.7,0.5,3-1.4,4.1c-0.2,0.1-0.5,0.2-0.5,0.3L114.6,46.3z M115.6,45.8l0.9,1.7
			c0.8-0.5,0.9-0.9,0.6-1.4C117,45.6,116.6,45.3,115.6,45.8z"/>
		<path d="M119.1,52.1l-4.1,1.4l-0.6-1.9l5.9-2l0.5,1.4c0.1,0.3,0,0.6-0.6,0.8c0.6,0.2,1.2,0.6,1.4,1.3c0,0.1,0.1,0.3,0.1,0.4
			l-1.7,0.6l-0.1-0.3C119.6,52.9,119.4,52.4,119.1,52.1z"/>
	</g>
	
		<linearGradient id="SVGID_00000085957783063438004990000010793624964299166373_" gradientUnits="userSpaceOnUse" x1="37.7034" y1="35.2174" x2="94.4814" y2="91.9955" gradientTransform="matrix(1 0 0 -1 0 126)">
		<stop  offset="0" style="stop-color:#FFFFFF"/>
		<stop  offset="1" style="stop-color:#D1D1D1"/>
	</linearGradient>
	<path style="fill:url(#SVGID_00000085957783063438004990000010793624964299166373_);" d="M19.8,62.4c0,18,21.2,33.3,46.3,33.3
		c25.1,0,46.3-15.3,46.3-33.3S91.3,29.1,66.1,29.1C40.9,29.1,19.8,44.4,19.8,62.4"/>
	
		<linearGradient id="SVGID_00000154405018692049818150000016283215811161920687_" gradientUnits="userSpaceOnUse" x1="39.7792" y1="37.3157" x2="92.4184" y2="89.9549" gradientTransform="matrix(1 0 0 -1 0 126)">
		<stop  offset="0" style="stop-color:#DBDBDB"/>
		<stop  offset="1" style="stop-color:#FFFFFF"/>
	</linearGradient>
	<path style="fill:url(#SVGID_00000154405018692049818150000016283215811161920687_);" d="M22.7,62.4c0,16.4,19.9,30.2,43.4,30.2
		s43.4-13.9,43.4-30.2c0-16.5-19.9-30.3-43.4-30.3C42.6,32.1,22.7,45.9,22.7,62.4"/>
	<g>
		<path class="st4" d="M47.1,63.2l-1.8-7.7C45,54.4,44.6,54,43.6,54h-1.8l-2.1,9.2L37.8,54H34l3.6,15.5h3.2l2.4-8.9l2.4,8.9h3.1
			L52.5,54h-3.6L47.1,63.2z"/>
		<path class="st4" d="M60.1,57.5c-1.3,0-2.7,0.5-3.5,1.1v-3.3c0-0.8-0.3-1.3-1.2-1.3H53v15.5h3.5v-8.8c0.7-0.2,1.4-0.3,2-0.3
			c0.7,0,1.2,0.2,1.2,1.1v8h3.5v-9C63.4,58.8,62.7,57.5,60.1,57.5"/>
		<rect x="64.4" y="57.8" class="st4" width="3.5" height="11.7"/>
		<path class="st4" d="M68.8,63.7c0,3.5,1.9,6.2,5.8,6.2c1.5,0,2.8-0.3,3.5-1v-2.2c-1.4,0.3-2,0.3-2.9,0.3c-1.8,0-2.8-1.2-2.8-3.2
			c0-1.9,0.9-3.2,2.8-3.2c0.8,0,1.5,0,2.9,0.3v-2.2c-0.7-0.6-2-1-3.5-1C70.6,57.5,68.8,60.2,68.8,63.7"/>
		<path class="st4" d="M85.9,57.5c-1.3,0-2.7,0.5-3.5,1.1v-3.3c0-0.8-0.3-1.3-1.2-1.3h-2.4v15.5h3.5v-8.8c0.7-0.2,1.4-0.3,2-0.3
			c0.7,0,1.2,0.2,1.2,1.1v8h3.7v-9C89.2,58.8,88.5,57.5,85.9,57.5"/>
		<path class="st4" d="M67.4,54h-2.3c-0.5,0-0.7,0.4-0.7,0.7V56c0,0.5,0.4,0.7,0.7,0.7h2.3c0.5,0,0.7-0.4,0.7-0.7v-1.3
			C68.1,54.4,67.8,54,67.4,54"/>
		<path d="M93,52.3c-1.5,0-3.3,0.5-4.4,1.3v2.3c1.2-0.3,2.6-0.4,3.1-0.4c1.7,0,2.7,0.5,2.7,1.8c0,1.2-0.6,1.6-1.6,2.4
			c-1.2,1.1-2.3,1.6-2.3,3.9v1.6h1.4h2.2v-1.2c0-1.4,0.7-1.8,1.9-2.9c1.4-1.2,2.1-2.5,2.1-4.4C98.1,54.3,96.4,52.3,93,52.3"/>
		<path d="M93.5,66.4h-2.2c-0.5,0-0.8,0.4-0.8,0.8v1.6c0,0.5,0.4,0.8,0.8,0.8h2.2c0.5,0,0.8-0.4,0.8-0.8v-1.6
			C94.3,66.7,93.9,66.4,93.5,66.4"/>
	</g>
	<g>
		<path d="M13.6,80.4l5-3.1l0.5,0.8l-5,3.1L13.6,80.4z"/>
		<path d="M18.5,80.9c0.6,0.2,1.1,0.5,1.5,1c0.4,0.5,0.5,1-0.3,1.7l-2.6,1.8l-0.6-0.6l2.4-1.8c0.5-0.4,0.4-0.6,0.2-0.9
			c-0.3-0.4-0.7-0.6-1.1-0.7l-2.7,1.9l-0.6-0.6l3.5-2.6l0.3,0.5C18.8,80.5,18.8,80.6,18.5,80.9z"/>
		<path d="M20.8,83.5l0.2-0.2l0.6,0.6l-1.7,3.2l0,0l3.2-1.4l0.5,0.6l-0.2,0.2l-4.1,1.7l-0.6-0.6L20.8,83.5z"/>
		<path d="M22.9,88.8c-0.6,0.8-0.6,1.4,0,1.9c0.5,0.4,0.8,0.5,1.2,0.6l0.2,0.2l-0.4,0.5c-0.4-0.1-0.9-0.2-1.5-0.7
			c-1-0.9-1-2-0.1-3.1c0.9-1,2.1-1.1,3.1-0.4c0.8,0.7,0.9,1.8-0.1,2.8c-0.1,0.1-0.2,0.2-0.2,0.2L22.9,88.8z M23.3,88.4l1.6,1.4
			c0.6-0.7,0.6-1.2,0.1-1.6C24.6,87.8,24,87.7,23.3,88.4z"/>
		<path d="M24.8,92.6l0.4-0.6l0.2,0.2c0,0.3,0.2,0.6,0.6,1s0.8,0.4,1.1,0.1c0.2-0.3,0.2-0.6-0.4-1.1c-0.6-0.6-0.8-1.2-0.4-1.8
			c0.5-0.6,1.3-0.6,2-0.1c0.5,0.4,0.7,0.7,0.8,1l-0.4,0.6l-0.2-0.2c-0.1-0.3-0.3-0.6-0.6-0.8c-0.5-0.4-0.7-0.4-1-0.1
			c-0.2,0.3-0.1,0.6,0.4,1c0.6,0.7,0.8,1.2,0.4,1.9c-0.5,0.6-1.3,0.7-2.1,0.1C25.1,93.4,24.9,93,24.8,92.6z"/>
		<path d="M30,91.5l0.5,0.3l0.6-1l0.7,0.5l-0.6,1l0.8,0.6l-0.4,0.5l-0.8-0.6l-1.5,2.1c-0.3,0.4-0.2,0.6,0.2,0.8l0.4,0.2l-0.3,0.5
			c-0.2-0.1-0.4-0.2-0.6-0.3c-0.6-0.5-0.8-0.9-0.4-1.6l1.5-2.2L29.7,92L30,91.5z"/>
		<path d="M33,94.2c0.5-0.1,1.1-0.1,1.7,0.3c0.4,0.2,0.6,0.6,0.6,1c0.6-0.1,1.2-0.1,1.8,0.3c0.6,0.3,0.8,0.7,0.4,1.6l-1.6,2.9
			L35,99.9l1.5-2.7c0.3-0.5,0.1-0.7-0.2-0.9c-0.4-0.2-0.8-0.2-1.2-0.2l-1.6,2.9l-0.7-0.4l1.5-2.7c0.3-0.5,0.1-0.7-0.2-0.9
			c-0.4-0.2-0.8-0.2-1.2-0.2l-1.6,2.9l-0.7-0.4l2.1-3.9l0.5,0.3C33.2,93.7,33.3,93.8,33,94.2z"/>
		<path d="M38.6,99.1c-0.4,1-0.1,1.5,0.6,1.8c0.6,0.2,0.9,0.2,1.3,0.1l0.3,0.1l-0.3,0.6c-0.4,0.1-0.9,0.1-1.7-0.2
			c-1.2-0.6-1.6-1.6-1-2.9c0.6-1.3,1.7-1.8,2.8-1.3c1.1,0.5,1.4,1.4,0.8,2.7c0,0.1-0.1,0.3-0.1,0.3L38.6,99.1z M38.8,98.6l1.9,0.8
			c0.4-0.8,0.2-1.3-0.4-1.6C39.8,97.6,39.3,97.8,38.8,98.6z"/>
		<path d="M43.7,99.2c0.6-0.2,1.2-0.3,1.8,0c0.6,0.2,1,0.6,0.6,1.5l-1,3.1l-0.8-0.3l1-2.9c0.2-0.6,0-0.7-0.4-0.8
			c-0.5-0.2-0.9-0.1-1.4,0l-1.1,3.1l-0.8-0.3l1.4-4.2l0.6,0.2C43.8,98.6,43.8,98.7,43.7,99.2z"/>
		<path d="M47.1,99.8l0.5,0.2l0.3-1.1l0.8,0.2l-0.3,1.1l0.9,0.3l-0.2,0.6l-0.9-0.3l-0.7,2.5c-0.1,0.5,0,0.6,0.5,0.7l0.4,0.1
			l-0.2,0.6c-0.2,0-0.4,0-0.7-0.1c-0.7-0.2-1-0.6-0.8-1.4l0.7-2.6l-0.6-0.2L47.1,99.8z"/>
		<path d="M52.2,99.6l1.7,0.3c1.3,0.3,2,0.9,1.8,2.1c-0.3,1.2-1.1,1.7-2.5,1.4l-0.7-0.2l-0.5,2.2l-0.9-0.2L52.2,99.6z M52.6,102.6
			l0.7,0.2c0.8,0.2,1.3-0.1,1.5-0.9c0.2-0.7-0.2-1.2-1-1.3l-0.7-0.2L52.6,102.6z"/>
		<path d="M55.9,106.1l0.8-5.8l0.5,0.1c0.4,0,0.4,0.1,0.3,0.6l-0.7,5.3L55.9,106.1z"/>
		<path d="M60.6,106.2c-0.4,0.3-0.7,0.5-1.4,0.5c-0.8-0.1-1.3-0.6-1.3-1.4c0.1-0.9,0.8-1.3,1.8-1.2c0.4,0,0.6,0.1,0.9,0.2l0.1-0.6
			c0-0.6-0.3-0.7-0.8-0.8c-0.6,0-0.9,0.1-1.2,0.3h-0.3l0.1-0.6c0.4-0.2,0.9-0.3,1.6-0.3c1,0.1,1.6,0.6,1.5,1.5l-0.3,3.1h-0.4
			C60.7,106.7,60.6,106.6,60.6,106.2z M60.6,105.7l0.1-0.9c-0.3-0.1-0.5-0.1-0.8-0.2c-0.6-0.1-1,0.1-1.1,0.6
			c-0.1,0.6,0.3,0.8,0.7,0.8C60,106.1,60.4,106,60.6,105.7z"/>
		<path d="M62.4,102.4H63v-1.2h0.8v1.2h1v0.6h-1l-0.1,2.6c0,0.5,0.2,0.6,0.6,0.6h0.4v0.6c-0.2,0-0.4,0.1-0.7,0.1
			c-0.7,0-1.2-0.4-1.1-1.2l0.1-2.7h-0.6V102.4z"/>
		<path d="M65.3,102.5h0.6v-0.4c0-0.8,0.5-1.2,1.2-1.2c0.3,0,0.5,0,0.6,0.1v0.6h-0.4c-0.4,0-0.6,0.1-0.6,0.6v0.4h0.9v0.6h-0.9
			l0.1,3.8H66l-0.1-3.8h-0.6L65.3,102.5z"/>
		<path d="M67.9,104.8c-0.1-1.4,0.7-2.3,1.9-2.4c1.2-0.1,2.1,0.7,2.2,2.1c0.1,1.4-0.7,2.3-1.9,2.3C69,106.9,68,106.1,67.9,104.8z
			 M71.3,104.6c-0.1-1-0.6-1.6-1.3-1.6c-0.7,0-1.2,0.6-1.1,1.7c0.1,1,0.6,1.6,1.3,1.5C70.9,106.1,71.4,105.6,71.3,104.6z"/>
		<path d="M73.9,103.3l0.4,3.1l-0.8,0.1l-0.6-4.3l0.6-0.1c0.2,0,0.3,0.1,0.4,0.6c0.3-0.4,0.6-0.7,1.2-0.8c0.1,0,0.2,0,0.3,0l0.1,0.7
			h-0.2C74.5,102.7,74.1,103,73.9,103.3z"/>
		<path d="M76.8,102.3c0.4-0.4,0.8-0.7,1.4-0.9c0.5-0.1,0.8,0,1.1,0.5c0.4-0.5,0.9-0.8,1.5-0.9c0.6-0.1,1.1,0.1,1.3,0.9l0.6,3.2
			l-0.8,0.2l-0.6-3c-0.1-0.5-0.4-0.6-0.7-0.6c-0.5,0.1-0.8,0.4-1.1,0.6l0.6,3.2l-0.8,0.2l-0.6-3c-0.1-0.5-0.4-0.6-0.7-0.6
			c-0.5,0.1-0.8,0.4-1.1,0.6l0.6,3.2l-0.8,0.2l-0.8-4.3l0.6-0.1C76.6,101.7,76.7,101.8,76.8,102.3z"/>
		<path d="M83.9,104.3l-0.2-0.6l0.3-0.1c0.3,0.1,0.6,0.2,1.2,0.1c0.6-0.2,0.8-0.5,0.7-0.8c-0.1-0.4-0.4-0.5-1.1-0.4
			c-0.9,0.1-1.5-0.1-1.7-0.8c-0.2-0.8,0.3-1.4,1.2-1.7c0.6-0.2,1-0.2,1.3-0.1l0.2,0.6l-0.3,0.1c-0.3-0.1-0.6-0.2-1,0
			c-0.6,0.2-0.7,0.4-0.6,0.7c0.1,0.4,0.4,0.4,1.1,0.3c1-0.1,1.5,0.1,1.8,0.8c0.2,0.8-0.1,1.5-1.2,1.8
			C84.7,104.5,84.2,104.4,83.9,104.3z"/>
		<path d="M87.7,97.4l1.2-0.5l3.1,3.5l0,0l-0.3-4.7l1.1-0.5l2.2,5.5l-0.8,0.4l-1.8-4.4l0,0l0.3,5.1l-0.6,0.2l-3.3-3.8l0,0l1.8,4.4
			l-0.7,0.3L87.7,97.4z"/>
		<path d="M98.6,98.4c-0.1,0.5-0.4,0.8-0.9,1.1c-0.7,0.4-1.5,0.3-1.8-0.6c-0.5-0.8,0-1.5,0.9-1.9c0.4-0.2,0.6-0.3,0.9-0.4l-0.3-0.6
			c-0.3-0.5-0.6-0.6-1.1-0.3c-0.5,0.3-0.7,0.6-0.9,0.9L95,96.8l-0.3-0.6c0.3-0.4,0.6-0.7,1.2-1.1c0.9-0.5,1.7-0.5,2,0.5l1.5,2.8
			l-0.3,0.2C98.9,98.7,98.7,98.6,98.6,98.4z M98.3,97.9l-0.5-0.8c-0.3,0.1-0.5,0.2-0.7,0.3c-0.6,0.3-0.8,0.6-0.6,1.1
			s0.6,0.6,1.1,0.3C98,98.6,98.2,98.3,98.3,97.9z"/>
		<path d="M101.8,98.4l-0.2-1.5l-3.5-2.4L98,94.3l0.6-0.5l2.7,1.9l0,0l-0.6-3.2l0.6-0.4l0.1,0.2l1,5.8l-0.6,0.4V98.4z"/>
		<path d="M108.8,91.9l-3,2.4l-0.5-0.6l0.3-2.3c0.1-1.1,0.1-1.8-0.3-2.2c-0.4-0.5-0.8-0.5-1.4-0.1c-0.5,0.4-0.6,0.8-0.7,1.2
			l-0.3,0.2l-0.4-0.5c0.1-0.5,0.4-1.1,0.9-1.5c0.9-0.7,1.8-0.7,2.5,0.1c0.6,0.6,0.5,1.6,0.4,2.8l-0.2,1.8l2.1-1.7L108.8,91.9z"/>
		<path d="M107.5,89.2c-1.4-1.5-1.3-3-0.4-3.8c0.9-0.9,2.4-1,3.8,0.5c1.4,1.5,1.3,3,0.4,3.8C110.4,90.5,108.9,90.6,107.5,89.2z
			 M110.3,86.4c-1.1-1.2-2-1.2-2.7-0.6c-0.6,0.6-0.6,1.5,0.6,2.7c1.1,1.2,2,1.2,2.7,0.6C111.5,88.6,111.4,87.6,110.3,86.4z"/>
		<path d="M115.9,84.3l-2.4,3l-0.6-0.5l-0.2-2.3c-0.1-1.1-0.3-1.8-0.7-2.1c-0.5-0.4-0.9-0.3-1.4,0.2c-0.4,0.5-0.5,0.9-0.5,1.3
			l-0.2,0.3l-0.5-0.4c0-0.5,0.2-1.1,0.6-1.7c0.7-0.9,1.6-1.1,2.4-0.5c0.6,0.6,0.8,1.4,0.9,2.6l0.2,1.8l1.8-2.1L115.9,84.3z"/>
		<path d="M118.6,80.3l-2,3.1l-0.6-0.4l-0.5-2.3c-0.3-1.1-0.5-1.7-0.9-2c-0.5-0.3-0.9-0.2-1.3,0.4c-0.4,0.6-0.4,1-0.3,1.4l-0.2,0.3
			l-0.6-0.4c0-0.5,0-1.1,0.5-1.8c0.6-1,1.5-1.3,2.4-0.6c0.7,0.5,0.9,1.3,1.2,2.5l0.4,1.7l1.5-2.3L118.6,80.3z"/>
	</g>
</g>
</svg>
