<?xml version="1.0" encoding="utf-8"?>
<!-- Generator: Adobe Illustrator 21.1.0, SVG Export Plug-In . SVG Version: 6.00 Build 0)  -->
<svg version="1.1" id="Layer_1" xmlns="http://www.w3.org/2000/svg" xmlns:xlink="http://www.w3.org/1999/xlink" x="0px" y="0px"
	 viewBox="0 0 48 48" style="enable-background:new 0 0 48 48;" xml:space="preserve">
<style type="text/css">
	.st0{fill:none;stroke:#009AA6;stroke-width:2;stroke-linecap:round;stroke-linejoin:round;stroke-miterlimit:10;}
	.st1{fill:none;stroke:#44697D;stroke-width:2;stroke-linecap:round;stroke-linejoin:round;stroke-miterlimit:10;}
</style>
<g>
	<path class="st0" d="M28.9,3.5H9.3C5,3.5,1.5,7,1.5,11.3v7.8c0,4.3,3.5,7.8,7.8,7.8h2.9v7.8l7.8-7.8h8.8c4.3,0,7.8-3.5,7.8-7.8
		v-7.8C36.7,7,33.2,3.5,28.9,3.5z"/>
	<path class="st1" d="M23,33.8c0,2.7,2.2,4.9,4.9,4.9h4.9l5.9,5.9v-5.9h2.9c2.7,0,4.9-2.2,4.9-4.9v-3.9c0-2.7-2.2-4.9-4.9-4.9"/>
</g>
</svg>
