<svg xmlns="http://www.w3.org/2000/svg" fill="none" aria-hidden="true" viewBox="0 0 64 65"><g fill="currentColor" clip-path="url(#a)"><path d="M46.667 64.334H17.333C16.533 64.334 16 63.8 16 63V17.667c0-.8.533-1.334 1.333-1.334.8 0 1.334.534 1.334 1.334v44h26.666v-44c0-.8.534-1.334 1.334-1.334S48 16.867 48 17.668V63c0 .8-.533 1.334-1.333 1.334Z"/><path d="M62.667 48.334H1.333C.533 48.334 0 47.8 0 47s.533-1.333 1.333-1.333h61.334c.8 0 1.333.533 1.333 1.333 0 .8-.533 1.334-1.333 1.334ZM17.333 35h-16C.533 35 0 34.467 0 33.667c0-.8.533-1.334 1.333-1.334h16c.8 0 1.334.534 1.334 1.334S18.133 35 17.333 35Zm45.334 0h-16c-.8 0-1.334-.533-1.334-1.333 0-.8.534-1.334 1.334-1.334h16c.8 0 1.333.534 1.333 1.334S63.467 35 62.667 35Z"/><path d="M57.333 64.334H46.667c-.8 0-1.334-.534-1.334-1.334s.534-1.333 1.334-1.333H56v-28c0-.8.533-1.334 1.333-1.334.8 0 1.334.534 1.334 1.334V63c0 .8-.534 1.334-1.334 1.334Zm-40 0H6.667c-.8 0-1.334-.534-1.334-1.334V33.667c0-.8.534-1.334 1.334-1.334S8 32.867 8 33.668v28h9.333c.8 0 1.334.533 1.334 1.333 0 .8-.534 1.334-1.334 1.334ZM50.667 19H13.333c-1.333 0-2.666-1.067-2.666-2.666v-2.667c0-1.6 1.066-2.667 2.666-2.667h37.334c1.6 0 2.666 1.067 2.666 2.667v2.667c0 1.6-1.066 2.666-2.666 2.666Zm-37.334-5.333v2.667h37.334v-2.667H13.333Zm24-5.333h-6.666c-.8 0-1.334-.534-1.334-1.334V1.667c0-.8.534-1.334 1.334-1.334h6.666C38.933.333 40 1.4 40 3v2.667c0 1.6-1.067 2.667-2.667 2.667ZM32 5.667h5.333V3H32v2.667Z"/><path d="M30.667 13.667c-.8 0-1.334-.534-1.334-1.333V7c0-.8.534-1.333 1.334-1.333S32 6.2 32 7v5.334c0 .8-.533 1.333-1.333 1.333Zm-4 16H24c-1.6 0-2.667-1.067-2.667-2.667v-2.666c0-1.6 1.067-2.667 2.667-2.667h2.667c1.6 0 2.666 1.066 2.666 2.666V27c0 1.6-1.066 2.667-2.666 2.667ZM24 24.333V27h2.667v-2.666H24ZM24 23v1.334V23Zm16 6.667h-2.667c-1.6 0-2.666-1.067-2.666-2.667v-2.666c0-1.6 1.066-2.667 2.666-2.667H40c1.6 0 2.667 1.066 2.667 2.666V27c0 1.6-1.067 2.667-2.667 2.667Zm-2.667-5.334V27H40v-2.666h-2.667Zm0-1.333v1.334V23ZM26.667 40.334H24c-1.6 0-2.667-1.067-2.667-2.667V35c0-1.6 1.067-2.666 2.667-2.666h2.667c1.6 0 2.666 1.066 2.666 2.666v2.667c0 1.6-1.066 2.666-2.666 2.666ZM24 35v2.667h2.667V35H24Zm0-1.333V35v-1.333Zm16 6.667h-2.667c-1.6 0-2.666-1.067-2.666-2.667V35c0-1.6 1.066-2.666 2.666-2.666H40c1.6 0 2.667 1.066 2.667 2.666v2.667c0 1.6-1.067 2.666-2.667 2.666ZM37.333 35v2.667H40V35h-2.667Zm0-1.333V35v-1.333ZM26.667 59H24c-1.6 0-2.667-1.066-2.667-2.666v-2.667C21.333 52.067 22.4 51 24 51h2.667c1.6 0 2.666 1.067 2.666 2.667v2.666c0 1.6-1.066 2.667-2.666 2.667ZM24 53.667v2.666h2.667v-2.666H24Zm0-1.334v1.334-1.334ZM40 59h-2.667c-1.6 0-2.666-1.066-2.666-2.666v-2.667c0-1.6 1.066-2.667 2.666-2.667H40c1.6 0 2.667 1.067 2.667 2.667v2.666C42.667 57.934 41.6 59 40 59Zm-2.667-5.333v2.666H40v-2.666h-2.667Zm0-1.334v1.334-1.334Z"/></g><defs><clipPath id="a"><path fill="currentColor" d="M0 .333h64v64H0z"/></clipPath></defs></svg>