<svg width="125" height="27" xmlns="http://www.w3.org/2000/svg"><g fill="#96151D" fill-rule="nonzero"><path d="M122.707.032c1.225 0 2.218.987 2.218 2.204a2.211 2.211 0 01-2.218 2.205 2.211 2.211 0 01-2.217-2.205c0-1.217.993-2.204 2.217-2.204zm0 .313a1.897 1.897 0 00-1.902 1.891c0 1.045.851 1.892 1.902 1.892a1.897 1.897 0 001.903-1.892 1.897 1.897 0 00-1.903-1.891zm.006.91c.175 0 .31.019.4.054a.438.438 0 01.22.187.556.556 0 01.082.295.49.49 0 01-.136.352c-.09.095-.23.156-.42.182a.681.681 0 01.158.097c.076.07.148.157.217.261l.342.534h-.328l-.261-.408a3.645 3.645 0 00-.188-.27.595.595 0 00-.132-.131.387.387 0 00-.12-.052.768.768 0 00-.145-.01h-.303v.87h-.26v-1.96h.874zm.01.218h-.624v.648h.561a.854.854 0 00.28-.036.298.298 0 00.153-.118.312.312 0 00.053-.176.295.295 0 00-.101-.229c-.068-.06-.175-.09-.321-.09zM113.819 7.14c0-1.669.026-3.313-.013-4.955-.016-.682-.31-1.267-1.031-1.61l6.1-.249v.724c.003 5.487.006 10.975.014 16.462 0 .336.024.676.08 1.007.105.62.37 1.137 1.041 1.378h-6.12c-.01-.215-.028-.425-.028-.635-.002-2.465.013-4.93-.013-7.396-.006-.526-.07-1.086-.261-1.57-.523-1.323-2.138-1.591-3.068-.508a3.64 3.64 0 00-.701 1.36 7.08 7.08 0 00-.014 3.772c.516 1.92 1.49 2.673 3.546 2.689-.42.754-.785 1.5-1.25 2.178-.14.204-.557.273-.857.306-1.998.217-3.623-.507-4.99-1.94-2.807-2.946-2.343-8.524.94-10.83 1.88-1.318 3.874-1.473 5.947-.457.178.088.355.18.533.267.016.008.039.003.145.007M94.182 6.537c1.972-.08 3.944-.159 5.991-.24v1.68c.215-.245.314-.346.398-.457.78-1.028 1.83-1.422 3.1-1.332.394.028.555.177.542.592-.028.93-.009 1.86-.009 2.8-.61 0-1.15-.048-1.68.009-1.42.153-2.27 1.024-2.301 2.438-.044 1.948-.034 3.898 0 5.846.015.803.136 1.614 1.074 2.034-.156.013-.312.037-.469.037-3.08.003-6.16.027-9.24-.016a6.708 6.708 0 01-2.16-.408c-1.507-.55-2.254-1.714-2.328-3.294-.034-.73-.006-1.463-.006-2.394-.842.335-1.604.562-2.285.934-.55.3-.819.866-.727 1.527.095.687.465 1.22 1.13 1.412.582.167 1.209.18 1.894.273-.283.574-.575 1.192-.895 1.794-.05.093-.23.164-.35.165-1.458.01-2.92.087-4.335-.402-1.787-.618-2.847-1.841-2.87-3.355-.024-1.652.972-2.979 2.82-3.574 1.097-.353 2.249-.54 3.368-.831.478-.125.975-.261 1.397-.506.852-.496.816-1.388-.044-1.894-.748-.44-1.577-.469-2.388-.297-1.006.215-1.991.525-3.02.804.307-.96.612-1.939.942-2.909a.532.532 0 01.336-.287c2.4-.533 4.79-.673 7.138.25 1.83.72 2.579 2.176 2.673 4.02.073 1.429.07 2.861.083 4.293.017 2.087 1.117 3 3.258 2.623.011-.176.033-.366.034-.555.005-2.824.008-5.648.01-8.472.001-.18.004-.36-.016-.537-.082-.737-.271-1.41-1.065-1.771M67.838 6.283c.194 0 .39.018.644.03v.675c0 2.665-.008 5.33.004 7.994.006 1.299.726 2.014 1.895 1.93.711-.052 1.219-.422 1.448-1.075a4.48 4.48 0 00.255-1.397c.028-1.949.03-3.898.004-5.846-.011-.811-.134-1.611-1.074-2.052l5.98-.249c.014.267.037.495.037.723.002 3.44 0 6.88.003 10.32 0 .278.016.557.043.834.07.74.291 1.392 1.065 1.738h-6.026v-1.525c-.277.202-.44.319-.6.437-1.418 1.048-2.977 1.384-4.702.945-2.096-.533-3.277-1.955-3.316-4.113-.037-2.068-.015-4.137-.02-6.204V8.73h-2.65l-.635.001c-.096 0-.191.02-.363.038.118.169.202.292.29.412 1.528 2.083.992 4.637-1.264 5.922-1.464.834-3.084 1.182-4.737 1.407-.435.06-1.065-.033-1.023.618.04.618.653.607 1.13.623 1.396.049 2.8.007 4.19.14.712.069 1.454.332 2.086.68 2.677 1.479 2.852 5.082.36 6.857-1.256.895-2.71 1.267-4.219 1.396-2.135.184-4.284.294-6.357-.402-.746-.251-1.491-.602-2.13-1.056-1.567-1.111-1.358-3.1.372-3.953 1.186-.584 2.439-.513 3.819-.313-.748.394-1.076.947-.902 1.68.177.748.759 1.146 1.443 1.394 1.145.415 2.287.339 3.395-.121.846-.352 1.244-1.019 1.216-1.936-.027-.868-.437-1.56-1.248-1.783-.89-.245-1.841-.277-2.768-.374-.376-.04-.76.007-1.14-.012-1.638-.085-2.75-1.163-2.894-2.782-.044-.49.167-.81.62-.962.452-.15.915-.27 1.31-.384-.665-.499-1.423-.947-2.03-1.546-2.13-2.1-1.736-5.308.807-6.898 1.35-.844 2.858-1.092 4.42-1.094 4.42-.004 8.841-.002 13.262 0zM55.77 9.667c-.51-.975-1.834-1.08-2.516-.255-.666.806-.747 2.698-.139 3.558.37.523.877.8 1.536.735.654-.063 1.06-.455 1.25-1.043.145-.447.204-.92.321-1.48-.135-.471-.203-1.04-.452-1.515z"/><path d="M18.323 9.88c.31-.964.602-1.911.929-2.847a.66.66 0 01.41-.358c2.05-.468 4.112-.612 6.17-.044 2.454.679 3.58 2.145 3.617 4.678.02 1.332.029 2.664.034 3.997.01 2.003 1.15 2.939 3.198 2.565.013-.157.04-.328.04-.499.003-2.883.014-5.766-.005-8.65-.006-.859-.07-1.734-1.077-2.184l5.988-.242.067 1.484.539-.391c1.312-.95 2.753-1.313 4.362-.986 2.231.455 3.516 1.95 3.546 4.231.028 2.207.007 4.414.008 6.622 0 .198-.002.397.005.596.038 1.042.28 1.474 1.185 2.051h-6.066v-2c0-2.208.004-4.415-.002-6.623-.004-1.255-.475-1.861-1.474-1.934-1.08-.08-1.878.577-2.077 1.716a3.518 3.518 0 00-.056.592c-.004 2.029-.012 4.057.002 6.085.005.886.186 1.705 1.11 2.207h-.636c-2.94 0-5.88.005-8.82-.005a7.403 7.403 0 01-1.372-.11c-2.205-.426-3.337-1.818-3.34-4.063v-1.806c-.899.175-1.74.334-2.406.905-1.01.866-.733 2.384.546 2.833.565.2 1.207.183 1.888.275-.285.577-.588 1.207-.912 1.826-.042.078-.2.135-.305.136-1.558.015-3.121.09-4.617-.495-1.676-.656-2.667-1.915-2.61-3.417.058-1.5.826-2.616 2.193-3.144 1.274-.492 2.647-.728 3.97-1.102.512-.146 1.048-.293 1.496-.566.742-.454.722-1.264.001-1.76-.759-.52-1.63-.552-2.483-.377-1.009.207-1.996.522-3.046.803M.14.331h1.832c1.4 0 2.8.02 4.2-.011.444-.01.615.147.75.548C8.347 5.086 9.79 9.298 11.23 13.51c.074.216.159.428.3.809.635-2.015 1.21-3.848 1.788-5.68.544-1.726 1.092-3.45 1.636-5.174.496-1.57.313-2.125-1.086-3.1h5.283l-6.692 19.648c-2.831-.725-5.209-1.913-6.244-4.887-1.445-4.148-2.97-8.268-4.458-12.401-.328-.91-.71-1.776-1.65-2.25L.14.331"/></g></svg>