<svg xmlns="http://www.w3.org/2000/svg" width="90.167" height="19.537" viewBox="0 0 90.167 19.537"><g fill="#FFF"><path d="M30.016 14.401l4.439.001-.003-.12c.003 0-.899-.023-.873-1.629l-.004-4.955c.004-3.441-3.478-3.315-3.478-3.315-1.457.027-2.447.913-2.689 1.155l.001-1.144-4.477.178v.126c.928.062.848 1.463.848 1.499v6.722c-.305.002-.838.004-.838-.01-1.496-.086-1.496-1.619-1.492-1.662l-.039-3.08c.018-2.224-1.307-2.933-1.287-2.952-2.503-1.549-6.088-.485-6.088-.485s-.767 2.427-.785 2.409c3.807-1.667 4.429-.017 4.408-.075a.73.73 0 0 1 .043.438c-.124.722-1.446.912-1.461.912-1.569.28-2.393.574-2.393.574-2.409.821-2.092 2.856-2.092 2.875.41 2.613 3.941 2.539 3.941 2.539h1.513l.765-1.568c-1.569.317-2.054-.543-2.054-.543-.653-1.082.336-1.717.336-1.717.386-.299 1.625-.578 1.625-.578v1.587c.124 2.931 3.245 2.827 3.343 2.815h2.557l4.488.003v-.118c-.002 0-.83-.029-.867-1.424l.004-4.53c-.031-1.679 1.352-1.7 1.348-1.702 1.346-.013 1.251 1.179 1.258 1.445l.001 4.579h.031l-.029.006v1.744M10.049 0v.119c1.408.55.882 1.933.882 1.933l-2.578 8.234L4.869.023H0v.146c.836.192 1.241 1.645 1.241 1.645l3.196 8.904c.884 2.505 2.54 3 2.54 3l2.043.795L13.938 0h-3.889M86.543 12.653L86.542.025l-4.525.177v.126c.924.062.844 1.463.844 1.5V5.1c-3.162-2.019-5.459.599-5.443.55-1.479 1.479-1.414 3.81-1.432 3.794 0 2.46 1.432 3.715 1.432 3.715 1.881 2.025 4.148 1.236 4.148 1.236s.98-1.752.98-1.768c-2.797.466-2.797-3.168-2.781-3.184 0-3.118 1.654-2.942 1.67-2.958 1.426.016 1.426 1.657 1.426 1.598l.002.128v6.188l4.568.002v-.117c-.003.002-.909.09-.888-1.631M72.952 5.692V4.394l-4.477.178v.126c.928.062.848 1.462.848 1.501l-.004 5.926h.002v.794c-.291.002-.893.004-.893-.01-1.496-.086-1.496-1.619-1.492-1.662l-.039-3.08c.018-2.224-1.305-2.933-1.287-2.952-2.504-1.549-6.088-.485-6.088-.485s-.768 2.427-.785 2.409c3.807-1.667 4.428-.017 4.408-.076.064.164.074.31.043.438-.125.722-1.447.912-1.461.912-1.57.28-2.395.574-2.395.574-2.408.821-2.09 2.856-2.09 2.875.41 2.613 3.941 2.539 3.941 2.539h1.512l.766-1.568c-1.568.317-2.055-.543-2.055-.543-.652-1.082.336-1.717.336-1.717.387-.299 1.625-.578 1.625-.578v1.587c.125 2.931 3.246 2.827 3.344 2.815h2.609v.002h4.518v-.119c-.043.006-.908.07-.891-1.632l.002-4.02h.002c.002.015-.125-2.28 2.895-1.773V4.393s-1.902-.583-2.894 1.299"/><path d="M49.842 4.382H39.476c-1.222.059-2.59.296-3.664 1.339 0 0-1.875 1.829-.267 4.146.014 0 .765 1.074 2.029 1.48.001-.001.013.002.031.005l-.021.005c.114-.003-.896.113-1.337.375-.247.158-.325.332-.258.764.07.426.451 1.82 1.924 1.902 1.049.047 2.557-.14 3.353.453 0 0 .571.415.571 1.113 0 .527-.061 1.607-2.262 1.721-.102-.002-1.824-.014-2.16-1.234 0-.008-.179-1.04.827-1.184 0 0-1.322-.311-2.442 0-1.517.422-1.965 1.82-1.113 2.82-.012-.014 1.236 1.467 4.604 1.442 3.393.093 6.793-.925 6.19-4.329-.014 0-.406-2.432-4.083-2.418h-1.815s-.772.057-.93-.309c-.002-.003-.344-.553.729-.59l.001.001.197-.022s3.169-.39 4.15-1.777a2.79 2.79 0 0 0-.027-3.635c-.002 0-.135-.182-.236-.268h2.722c-.002 1.243-.008 4.887.004 4.913-.006 3.441 3.537 3.316 3.537 3.316 1.521-.029 2.531-.992 2.715-1.184v1.172l4.521.001v-.117c-.969-.044-.889-1.597-.887-1.632V4.394l-4.475.178v.126c.926.062.844 1.463.844 1.499v4.27c-.002 0-.002-.002-.004-.003-.051 1.913-1.385 1.685-1.379 1.708-1.256.012-1.225-1.377-1.225-1.377V4.382M39.621 9.834c-.097.023-1.399-.094-1.259-1.919.018.016-.035-1.627 1.263-1.627 0 0 1.178-.05 1.205 1.598 0 .03.159 1.948-1.209 1.948M87.557.992a.938.938 0 1 0 1.877 0 .938.938 0 0 0-1.877 0m.129 0a.808.808 0 1 1 1.616 0 .808.808 0 0 1-1.616 0"/><path d="M88.288.919h.252c.17-.007.209-.084.209-.171 0-.087-.039-.165-.209-.171h-.252v.342m.004.132v.499h-.154V.444h.395c.186 0 .377.058.377.278 0 .133-.08.235-.209.266v.003c.133.032.152.103.168.227.02.11.031.229.07.332h-.164c-.014-.065-.031-.138-.039-.203-.014-.099-.014-.19-.062-.245-.045-.051-.107-.046-.168-.051h-.214z"/></g></svg>