<svg xmlns="http://www.w3.org/2000/svg" fill="none" aria-hidden="true" viewBox="0 0 64 64"><g fill="currentColor" clip-path="url(#a)"><path d="M14.667 32C11.2 32 0 31.467 0 28s11.2-4 14.667-4c3.466 0 14.666.267 14.666 4s-11.2 4-14.666 4Zm-11.2-4c1.6.533 5.333 1.333 11.2 1.333 5.866 0 9.6-.8 11.2-1.333-1.6-.8-5.334-1.333-11.2-1.333-5.867 0-9.6.533-11.2 1.333Z"/><path d="M14.667 40C10.133 40 0 39.467 0 36v-8c0-.8.533-1.333 1.333-1.333.8 0 1.334.533 1.334 1.333v7.733c.8.534 5.066 1.6 12 1.6 6.933 0 11.2-1.066 12-1.6V28c0-.8.533-1.333 1.333-1.333.8 0 1.333.533 1.333 1.333v8c0 3.467-10.133 4-14.666 4Z"/><path d="M14.667 48C10.133 48 0 47.467 0 44v-8c0-.8.533-1.333 1.333-1.333.8 0 1.334.533 1.334 1.333v7.733c.8.534 5.066 1.6 12 1.6 6.933 0 11.2-1.066 12-1.6V36c0-.8.533-1.333 1.333-1.333.8 0 1.333.533 1.333 1.333v8c0 3.467-10.133 4-14.666 4Z"/><path d="M14.667 56C11.2 56 0 55.467 0 52v-8c0-.8.533-1.333 1.333-1.333.8 0 1.334.533 1.334 1.333v7.733c.8.534 5.066 1.6 12 1.6 6.933 0 11.2-1.066 12-1.6V44c0-.8.533-1.333 1.333-1.333.8 0 1.333.533 1.333 1.333v8c0 3.467-11.2 4-14.666 4Z"/><path d="M14.667 64C10.133 64 0 63.467 0 60v-8c0-.8.533-1.333 1.333-1.333.8 0 1.334.533 1.334 1.333v7.733c.8.534 5.066 1.6 12 1.6 6.933 0 11.2-1.066 12-1.6V52c0-.8.533-1.333 1.333-1.333.8 0 1.333.533 1.333 1.333v8c0 3.467-10.133 4-14.666 4ZM48.8 54.4c-1.067 0-1.6-.267-2.4-.533-.533-.267-1.333-.8-1.6-1.334-.533-.533-.8-1.066-1.067-1.866l-1.333-4C39.733 47.733 37.333 48 34.667 48c-.8 0-1.334-.533-1.334-1.333 0-.8.534-1.334 1.334-1.334 2.666 0 5.333-.266 8-1.066.8-.267 1.333.266 1.6.8l1.866 5.066c0 .267.267.534.534.8.266.267.533.534.8.534.266.266.8.266 1.066.266.267 0 .8 0 1.067-.266.267 0 .533-.267.8-.534.267-.266.533-.533.533-.8.267-.266.267-.8.267-1.066 0-.267 0-.8-.267-1.067L48.8 42.133c-.267-.533 0-1.333.533-1.6 2.934-1.866 5.067-4.8 6.4-8 .267-.533.8-.8 1.334-.8h2.4c.266 0 .8-.266 1.066-.266.267-.267.267-.534.267-1.067v-8c0-.267-.267-.8-.267-1.067H57.6c-.533 0-1.067-.266-1.333-.8-1.067-3.2-3.2-6.4-5.867-8.533-.267-.267-.533-.533-.533-1.067V2.667c-2.4.8-4.534 2.4-6.134 4.533-.266.533-.8.8-1.333.533-2.4-.8-5.067-1.066-7.733-1.066-9.6 0-18.4 5.066-21.867 12.533-.267.533-1.067.8-1.6.533-.8-.266-1.067-1.066-.8-1.866C14.4 9.6 24 4 34.667 4c2.4 0 5.066.267 7.466.8C44 2.667 46.4 1.067 49.067 0c.533 0 .8-.267 1.333 0 .267 0 .8.267 1.067.533.266.267.533.534.8 1.067.266.267.266.8.266 1.067v7.2c2.667 2.4 4.534 5.333 5.867 8.533H60c1.067 0 2.133.533 2.933 1.067.8.533 1.067 2.133 1.067 3.2v8c0 1.066-.533 2.133-1.067 2.933-.8.8-1.866 1.067-2.933 1.067h-1.6c-1.333 3.2-3.467 5.6-6.133 7.733l1.866 4.8c.267.8.267 1.333.267 2.133s-.267 1.334-.533 2.134c-.267.533-.8 1.333-1.334 1.6-.533.533-1.066.8-1.866 1.066-.534.267-1.067.267-1.867.267Z"/><path d="M21.333 17.333c-.266 0-.533 0-.8-.266a1.289 1.289 0 0 1 0-1.867C23.467 12 27.733 9.867 32 9.333c.8 0 1.333.534 1.333 1.334S32.8 12 32 12c-3.733.267-7.2 2.133-9.867 4.8 0 .267-.533.533-.8.533Zm24.534 4c-1.067 0-2.134-.8-2.134-2.133s.8-2.133 2.134-2.133v4.266Zm0 0v-4c1.066 0 2.133.8 2.133 2.134 0 1.333-.8 1.866-2.133 1.866Z"/></g><defs><clipPath id="a"><path fill="currentColor" d="M0 0h64v64H0z"/></clipPath></defs></svg>