<svg xmlns="http://www.w3.org/2000/svg" fill="none" aria-hidden="true" viewBox="0 0 65 64"><path fill="currentColor" d="M50 21.333h-8c-.8 0-1.333-.533-1.333-1.333 0-.8.533-1.333 1.333-1.333h8c.8 0 1.333.533 1.333 1.333 0 .8-.533 1.333-1.333 1.333Zm-10.667-8c-.266 0-.8 0-1.066-.266a1.289 1.289 0 0 1 0-1.867L43.6 5.867a1.289 1.289 0 0 1 1.867 0 1.289 1.289 0 0 1 0 1.866l-5.334 5.334s-.533.266-.8.266Zm-7.999-2.666c-.8 0-1.334-.534-1.334-1.334v-8C30 .533 30.534 0 31.334 0s1.333.533 1.333 1.333v8c0 .8-.534 1.334-1.334 1.334Zm-10.667 2.666c-.267 0-.8 0-1.067-.266l-5.333-5.334C14 7.2 14 6.133 14.267 5.6c.266-.533 1.333-.533 1.866 0l5.334 5.333c.533.534.533 1.6.266 2.134-.266 0-.8.266-1.066.266Zm-2.667 8h-8c-.8 0-1.333-.533-1.333-1.333 0-.8.533-1.333 1.333-1.333h8c.8 0 1.333.533 1.333 1.333 0 .8-.533 1.333-1.333 1.333ZM23.867 64c-.267 0-.8-.267-1.067-.533L12.667 51.2c-1.067-1.067-1.334-2.4-1.334-3.733 0-1.334.8-2.667 1.867-3.734 2.133-1.866 5.6-1.6 7.467.8l4 4.534v-22.4c0-2.934 2.4-5.334 5.333-5.334 2.933 0 5.333 2.4 5.333 5.334v16H42c6.667 0 12 5.333 12 12v8c0 .8-.533 1.333-1.333 1.333-.8 0-1.334-.533-1.334-1.333v-8c0-5.067-4.266-9.334-9.333-9.334h-8c-.8 0-1.333-.533-1.333-1.333V26.667C32.667 25.067 31.6 24 30 24c-1.6 0-2.667 1.067-2.667 2.667V52.8c0 .533-.266 1.067-.8 1.333-.533.267-1.066 0-1.6-.533L18.8 46.133c-1.067-1.066-2.667-1.333-3.733-.266C14.533 46.4 14 46.933 14 47.733s.267 1.334.533 1.867l10.134 12.267c.533.533.266 1.333-.267 1.866 0 .267-.267.267-.533.267Z"/></svg>