<?xml version="1.0" encoding="utf-8"?>
<!-- Generator: Adobe Illustrator 23.0.1, SVG Export Plug-In . SVG Version: 6.00 Build 0)  -->
<svg version="1.1" id="Layer_1" xmlns="http://www.w3.org/2000/svg" xmlns:xlink="http://www.w3.org/1999/xlink" x="0px" y="0px"
	 viewBox="0 0 48.2 48.2" style="enable-background:new 0 0 48.2 48.2;" xml:space="preserve">
<style type="text/css">
	.st0{fill:#1A1A1A;}
</style>
<g id="search_x5F_loop">
	<path class="st0" d="M47.8,46.4l-18-18l0,0c2.7-3,4.3-6.9,4.3-11.3c0-9.4-7.6-17-17-17s-17,7.6-17,17s7.6,17,17,17
		c4.3,0,8.3-1.6,11.3-4.3l0,0l18,18c0.2,0.2,0.5,0.3,0.7,0.3s0.5-0.1,0.7-0.3C48.2,47.4,48.2,46.8,47.8,46.4z M17.1,32.1
		c-8.3,0-15-6.7-15-15s6.7-15,15-15s15,6.7,15,15S25.4,32.1,17.1,32.1z"/>
</g>
</svg>
