<svg width="768" height="432" viewBox="0 0 768 432" fill="none" xmlns="http://www.w3.org/2000/svg">
<path d="M560.154 215.974L597.179 187.487H644.359L607.359 215.974" fill="#37B69F"/>
<path d="M560.154 215.974L597.179 187.487H644.359L607.359 215.974" stroke="black" stroke-miterlimit="10"/>
<path d="M607.359 215.974L644.359 244.487H597.179L560.154 215.974" fill="#37B69F"/>
<path d="M607.359 215.974L644.359 244.487H597.179L560.154 215.974" stroke="black" stroke-miterlimit="10"/>
<path d="M324 16C284.444 16 245.776 27.7298 212.886 49.7061C179.996 71.6823 154.362 102.918 139.224 139.463C124.087 176.008 120.126 216.222 127.843 255.018C135.56 293.814 154.608 329.451 182.579 357.421C210.549 385.392 246.186 404.44 284.982 412.157C323.778 419.874 363.991 415.913 400.537 400.776C437.082 385.638 468.318 360.004 490.294 327.114C512.27 294.224 524 255.556 524 216C524 189.736 518.827 163.728 508.776 139.463C498.725 115.198 483.993 93.1503 465.421 74.5786C446.85 56.0069 424.802 41.275 400.537 31.2241C376.272 21.1732 350.264 16 324 16ZM324 378.82C291.792 378.82 260.307 369.27 233.528 351.376C206.748 333.482 185.875 308.049 173.55 278.293C161.224 248.537 158 215.794 164.283 184.205C170.566 152.616 186.076 123.599 208.85 100.825C231.625 78.0503 260.641 62.5407 292.23 56.2572C323.819 49.9738 356.562 53.1987 386.319 65.5241C416.075 77.8496 441.508 98.7219 459.402 125.502C477.295 152.282 486.846 183.766 486.846 215.974C486.849 237.36 482.64 258.538 474.457 278.297C466.274 298.056 454.279 316.009 439.157 331.131C424.035 346.254 406.081 358.249 386.323 366.431C366.564 374.614 345.386 378.824 324 378.82Z" fill="#C1202B" stroke="black" stroke-miterlimit="10"/>
<path d="M324 53.1536C291.791 53.1536 260.305 62.705 233.525 80.5999C206.744 98.4948 185.872 123.929 173.547 153.687C161.223 183.445 157.999 216.189 164.285 247.779C170.57 279.369 186.082 308.385 208.859 331.158C231.636 353.932 260.655 369.439 292.246 375.72C323.837 382 356.58 378.772 386.336 366.443C416.092 354.113 441.523 333.237 459.414 306.453C477.305 279.67 486.851 248.183 486.846 215.974C486.846 194.59 482.634 173.415 474.45 153.659C466.266 133.903 454.27 115.953 439.148 100.834C424.026 85.7139 406.074 73.7212 386.317 65.5402C366.559 57.3592 345.384 53.1502 324 53.1536ZM324 341.666C299.151 341.666 274.859 334.298 254.198 320.492C233.536 306.686 217.432 287.064 207.923 264.106C198.413 241.148 195.925 215.886 200.773 191.514C205.621 167.142 217.587 144.755 235.158 127.184C252.73 109.613 275.117 97.6464 299.489 92.7985C323.861 87.9506 349.123 90.4387 372.081 99.9482C395.039 109.458 414.661 125.561 428.467 146.223C442.272 166.884 449.641 191.176 449.641 216.025C449.641 249.347 436.404 281.305 412.842 304.867C389.279 328.429 357.322 341.666 324 341.666Z" fill="white" stroke="black" stroke-miterlimit="10"/>
<path d="M324 90.3076C299.15 90.3076 274.859 97.6763 254.198 111.482C233.536 125.288 217.432 144.91 207.923 167.868C198.413 190.826 195.925 216.088 200.773 240.46C205.621 264.832 217.587 287.219 235.158 304.79C252.73 322.361 275.117 334.328 299.489 339.175C323.861 344.023 349.123 341.535 372.081 332.026C395.039 322.516 414.661 306.413 428.467 285.751C442.272 265.089 449.641 240.798 449.641 215.949C449.641 182.627 436.404 150.669 412.842 127.107C389.279 103.545 357.322 90.3076 324 90.3076ZM324 304.487C306.494 304.487 289.381 299.296 274.825 289.57C260.269 279.844 248.924 266.02 242.225 249.847C235.525 233.673 233.773 215.876 237.188 198.706C240.603 181.536 249.033 165.765 261.412 153.386C273.791 141.008 289.562 132.577 306.732 129.162C323.902 125.747 341.699 127.5 357.872 134.199C374.046 140.898 387.87 152.243 397.596 166.799C407.322 181.355 412.513 198.468 412.513 215.974C412.513 239.449 403.187 261.963 386.588 278.562C369.989 295.162 347.475 304.487 324 304.487Z" fill="#C1202B" stroke="black" stroke-miterlimit="10"/>
<path d="M324 127.462C306.494 127.462 289.381 132.653 274.825 142.379C260.269 152.105 248.924 165.929 242.225 182.102C235.525 198.276 233.773 216.073 237.188 233.242C240.603 250.412 249.033 266.184 261.412 278.562C273.791 290.941 289.562 299.371 306.732 302.787C323.902 306.202 341.699 304.449 357.872 297.75C374.046 291.05 387.87 279.705 397.596 265.15C407.322 250.594 412.513 233.481 412.513 215.974C412.506 192.501 403.178 169.992 386.58 153.394C369.982 136.796 347.473 127.468 324 127.462ZM324 267.333C313.857 267.333 303.942 264.326 295.509 258.691C287.076 253.056 280.503 245.047 276.621 235.676C272.74 226.306 271.725 215.995 273.703 206.047C275.682 196.099 280.566 186.961 287.738 179.789C294.91 172.618 304.048 167.733 313.995 165.755C323.943 163.776 334.254 164.792 343.625 168.673C352.995 172.554 361.004 179.127 366.639 187.561C372.274 195.994 375.282 205.909 375.282 216.051C375.282 229.652 369.879 242.696 360.262 252.313C350.645 261.93 337.601 267.333 324 267.333Z" fill="white" stroke="black" stroke-miterlimit="10"/>
<path d="M324 267.333C352.365 267.333 375.359 244.339 375.359 215.974C375.359 187.609 352.365 164.615 324 164.615C295.635 164.615 272.641 187.609 272.641 215.974C272.641 244.339 295.635 267.333 324 267.333Z" fill="#C1202B" stroke="black" stroke-miterlimit="10"/>
<path d="M324 215.974H607.359" stroke="black" stroke-miterlimit="10"/>
<path d="M591.615 215.974L628.615 187.487" stroke="black" stroke-miterlimit="10"/>
<path d="M575.897 215.974L612.897 187.487" stroke="black" stroke-miterlimit="10"/>
<path d="M612.897 244.487L575.897 215.974" stroke="black" stroke-miterlimit="10"/>
<path d="M628.615 244.487L591.615 215.974" stroke="black" stroke-miterlimit="10"/>
</svg>
